<?xml version="1.0" encoding="UTF-8" standalone="no"?>
<svg
   xmlns:dc="http://purl.org/dc/elements/1.1/"
   xmlns:cc="http://creativecommons.org/ns#"
   xmlns:rdf="http://www.w3.org/1999/02/22-rdf-syntax-ns#"
   xmlns:svg="http://www.w3.org/2000/svg"
   xmlns="http://www.w3.org/2000/svg"
   xmlns:sodipodi="http://sodipodi.sourceforge.net/DTD/sodipodi-0.dtd"
   xmlns:inkscape="http://www.inkscape.org/namespaces/inkscape"
   aria-hidden="true"
   focusable="false"
   data-prefix="fas"
   data-icon="chevron-circle-left"
   class="svg-inline--fa fa-chevron-circle-left fa-w-16"
   role="img"
   viewBox="0 0 492.05954 492.01428"
   version="1.1"
   id="svg4"
   sodipodi:docname="chevron-circle-left-solid.svg"
   width="492.05954"
   height="492.01428"
   inkscape:version="0.92.5 (2060ec1f9f, 2020-04-08)">
  <metadata
     id="metadata10">
    <rdf:RDF>
      <cc:Work
         rdf:about="">
        <dc:format>image/svg+xml</dc:format>
        <dc:type
           rdf:resource="http://purl.org/dc/dcmitype/StillImage" />
        <dc:title></dc:title>
      </cc:Work>
    </rdf:RDF>
  </metadata>
  <defs
     id="defs8" />
  <sodipodi:namedview
     pagecolor="#ffffff"
     bordercolor="#666666"
     borderopacity="1"
     objecttolerance="10"
     gridtolerance="10"
     guidetolerance="10"
     inkscape:pageopacity="0"
     inkscape:pageshadow="2"
     inkscape:window-width="1920"
     inkscape:window-height="973"
     id="namedview6"
     showgrid="false"
     inkscape:zoom="0.65186406"
     inkscape:cx="-132.13932"
     inkscape:cy="177.07564"
     inkscape:window-x="0"
     inkscape:window-y="40"
     inkscape:window-maximized="1"
     inkscape:current-layer="svg4"
     fit-margin-top="0"
     fit-margin-left="0"
     fit-margin-right="0"
     fit-margin-bottom="0" />
  <path
     style="fill:currentColor"
     d="M 277.43177,1.9758819 C 352.13246,11.000024 420.86799,56.785293 458.4837,121.79848 497.02947,186.8235 502.68299,269.28205 473.91029,338.9876 445.84785,408.67522 384.07821,463.70881 311.48739,483.20931 244.27395,501.95013 169.38103,490.47486 111.00013,451.6458 48.996582,411.39023 7.1283919,341.76371 1.0567719,268.06377 -5.3249281,201.42607 17.445512,131.92445 62.630112,82.076743 107.74398,31.010273 175.02047,0.44677889 242.91029,0.01885089 c 11.61045,-0.140422 23.0223,0.502857 34.52148,1.95703101 z"
     id="path852"
     inkscape:connector-curvature="0" />
  <path
     style="fill:#ffffff;fill-opacity:1"
     d="M 268.75013,89.876273 C 223.19206,134.77658 178.22276,180.3191 132.88708,225.46198 c -10.73508,8.58548 -13.13273,25.646 -4.33617,36.43773 43.46799,44.17255 87.62344,87.71358 131.35089,131.64776 6.6097,8.05062 16.17464,15.32288 27.20575,13.88544 13.80152,-0.94084 21.36401,-14.21146 30.7654,-22.40016 10.70983,-8.56234 13.14906,-25.60392 4.33421,-36.3596 -33.83671,-34.49727 -68.3202,-68.40041 -102.39843,-102.67579 l 91.70026,-91.70026 c 7.76247,-6.98419 16.57908,-15.44655 16.12005,-26.8388 0.52336,-11.43971 -8.39033,-19.88191 -16.14948,-26.88972 -6.9907,-7.776347 -15.47799,-16.601297 -26.88763,-16.120037 -5.69075,-0.0143 -11.3618,1.91412 -15.8418,5.42773 z"
     id="path2-3"
     inkscape:connector-curvature="0" />
</svg>
