<?xml version="1.0" encoding="UTF-8" standalone="no"?>
<svg
   xmlns:dc="http://purl.org/dc/elements/1.1/"
   xmlns:cc="http://creativecommons.org/ns#"
   xmlns:rdf="http://www.w3.org/1999/02/22-rdf-syntax-ns#"
   xmlns:svg="http://www.w3.org/2000/svg"
   xmlns="http://www.w3.org/2000/svg"
   xmlns:xlink="http://www.w3.org/1999/xlink"
   xmlns:sodipodi="http://sodipodi.sourceforge.net/DTD/sodipodi-0.dtd"
   xmlns:inkscape="http://www.inkscape.org/namespaces/inkscape"
   width="210mm"
   height="148mm"
   viewBox="0 0 210.00001 148"
   version="1.1"
   id="svg8"
   inkscape:version="1.0.2 (1.0.2+r75+1)"
   sodipodi:docname="value-complexity.svg">
  <defs
     id="defs2">
    <pattern
       inkscape:collect="always"
       xlink:href="#pattern3298"
       id="pattern3614"
       patternTransform="matrix(-0.12546745,0.16382967,-0.01845778,-0.01413564,219.76166,157.97991)" />
    <pattern
       inkscape:collect="always"
       xlink:href="#Strips1_1"
       id="pattern2858"
       patternTransform="matrix(10,0,0,10,32.859897,38.867541)" />
    <pattern
       inkscape:collect="always"
       patternUnits="userSpaceOnUse"
       width="2"
       height="1"
       patternTransform="translate(0,0) scale(10,10)"
       id="Strips1_1"
       inkscape:stockid="Stripes 1:1"
       inkscape:isstock="true">
      <rect
         style="fill:black;stroke:none"
         x="0"
         y="-0.5"
         width="1"
         height="2"
         id="rect1828" />
    </pattern>
    <pattern
       inkscape:collect="always"
       xlink:href="#pattern3298"
       id="pattern3305"
       patternTransform="matrix(-0.15239773,0,0,-0.08166905,-170.13698,-185.29005)" />
    <pattern
       patternUnits="userSpaceOnUse"
       width="155.87591"
       height="46.668889"
       patternTransform="translate(252.84172,246.01172)"
       id="pattern3298">
      <g
         id="g3296"
         transform="matrix(3.7795276,0,0,3.7795276,-436.00688,-512.55108)">
        <rect
           style="opacity:1;fill:#000000;fill-opacity:1;stroke:none;stroke-width:0.158;stroke-miterlimit:4;stroke-dasharray:none;stroke-opacity:1;paint-order:stroke fill markers"
           id="rect3282"
           width="41.242168"
           height="6.1739058"
           x="115.36015"
           y="135.61247" />
        <rect
           style="opacity:1;fill:none;fill-opacity:1;stroke:none;stroke-width:0.158;stroke-miterlimit:4;stroke-dasharray:none;stroke-opacity:1;paint-order:stroke fill markers"
           id="rect3284"
           width="41.242168"
           height="6.1739058"
           x="115.36015"
           y="141.78638" />
      </g>
    </pattern>
  </defs>
  <sodipodi:namedview
     id="base"
     pagecolor="#ffffff"
     bordercolor="#666666"
     borderopacity="1.0"
     inkscape:pageopacity="0.0"
     inkscape:pageshadow="2"
     inkscape:zoom="1.4142136"
     inkscape:cx="421.51267"
     inkscape:cy="215.41136"
     inkscape:document-units="mm"
     inkscape:current-layer="layer1"
     showgrid="false"
     inkscape:window-width="1920"
     inkscape:window-height="973"
     inkscape:window-x="0"
     inkscape:window-y="40"
     inkscape:window-maximized="1"
     inkscape:document-rotation="0"
     fit-margin-top="0"
     fit-margin-left="0"
     fit-margin-right="0"
     fit-margin-bottom="0" />
  <metadata
     id="metadata5">
    <rdf:RDF>
      <cc:Work
         rdf:about="">
        <dc:format>image/svg+xml</dc:format>
        <dc:type
           rdf:resource="http://purl.org/dc/dcmitype/StillImage" />
        <dc:title></dc:title>
      </cc:Work>
    </rdf:RDF>
  </metadata>
  <g
     inkscape:label="Layer 1"
     inkscape:groupmode="layer"
     id="layer1"
     transform="translate(-48.462448,-70.521872)">
    <path
       style="opacity:0.57;fill:#000000;fill-opacity:1;stroke:#000000;stroke-width:0.132;stroke-miterlimit:4;stroke-dasharray:none;stroke-opacity:1"
       d="m 94.85887,158.23111 c 0.01746,-0.0153 0.198928,-0.15759 0.403272,-0.31617 0.573995,-0.44546 0.653686,-0.53368 0.761733,-0.84332 0.123497,-0.35392 0.472434,-1.08008 0.569265,-1.18469 0.04252,-0.0459 0.105936,-0.14047 0.14092,-0.21008 0.08135,-0.16186 2.372717,-2.46262 2.452571,-2.46262 0.08899,0 0.294812,-0.2112 0.317793,-0.32611 0.01479,-0.074 0.140587,-0.21509 0.467778,-0.5248 0.318598,-0.30158 0.447548,-0.44548 0.447548,-0.49947 0,-0.0417 0.0301,-0.10305 0.0668,-0.1363 0.037,-0.0335 0.0668,-0.1029 0.0668,-0.15552 0,-0.0735 0.0155,-0.0951 0.0685,-0.0951 0.16307,0 0.37323,-0.17982 0.34418,-0.29449 -0.01,-0.0382 0.15832,-0.22835 0.52153,-0.59045 0.35354,-0.35245 0.53579,-0.55809 0.53579,-0.60453 0,-0.0387 0.0301,-0.0976 0.0668,-0.13085 0.0367,-0.0333 0.0668,-0.0934 0.0668,-0.13363 0,-0.0402 0.0301,-0.10038 0.0668,-0.13364 0.0367,-0.0333 0.0668,-0.0927 0.0668,-0.13208 0,-0.0394 0.0596,-0.13359 0.13234,-0.20934 0.0728,-0.0757 0.14191,-0.17588 0.15362,-0.22251 0.0117,-0.0466 0.0424,-0.10229 0.0681,-0.12367 0.0258,-0.0214 0.0468,-0.0723 0.0468,-0.11312 0,-0.0408 0.0301,-0.10146 0.0668,-0.13472 0.0367,-0.0333 0.0668,-0.0938 0.0668,-0.13449 0,-0.0458 0.0757,-0.14997 0.19835,-0.27299 0.1091,-0.10944 0.2083,-0.23856 0.22044,-0.28693 0.0121,-0.0484 0.0431,-0.10545 0.0689,-0.12683 0.0258,-0.0214 0.0468,-0.0762 0.0468,-0.12176 0,-0.0623 0.0996,-0.17827 0.4009,-0.46698 0.29419,-0.28185 0.40091,-0.40543 0.40091,-0.46426 0,-0.0563 0.0188,-0.0802 0.0631,-0.0802 0.0911,0 0.20219,-0.10375 0.21222,-0.19819 0.005,-0.0447 0.065,-0.13288 0.13392,-0.19598 0.073,-0.0668 0.12528,-0.14582 0.12528,-0.18919 0,-0.0409 0.0301,-0.10167 0.0668,-0.13493 0.0367,-0.0333 0.0668,-0.091 0.0668,-0.12831 0,-0.0373 0.0329,-0.10285 0.0731,-0.14564 0.0481,-0.0512 0.0738,-0.1222 0.0752,-0.20747 0.001,-0.0741 0.0271,-0.15735 0.0605,-0.19425 0.0322,-0.0355 0.0585,-0.0949 0.0585,-0.13194 0,-0.0371 0.0301,-0.0946 0.0668,-0.12783 0.0367,-0.0333 0.0668,-0.091 0.0668,-0.12831 0,-0.0373 0.0329,-0.10285 0.0731,-0.14564 0.0485,-0.0516 0.0738,-0.12214 0.0752,-0.2093 0.001,-0.0723 0.0209,-0.15029 0.0438,-0.17325 0.0334,-0.0334 0.0418,1.3494 0.0418,6.91394 v 6.95569 h -5.31866 c -2.925266,0 -5.304382,-0.0125 -5.286926,-0.0278 z"
       id="path2666"
       inkscape:connector-curvature="0" />
    <path
       style="fill:none;stroke:#000000;stroke-width:0.176263;stroke-linecap:butt;stroke-linejoin:miter;stroke-miterlimit:4;stroke-dasharray:none;stroke-opacity:1"
       d="m 165.06854,129.72106 3.01912,14.70124"
       id="path2711"
       inkscape:connector-curvature="0" />
    <path
       style="opacity:1;fill:#00ffb2;stroke:#000000;stroke-width:0.220841;stroke-linecap:butt;stroke-linejoin:miter;stroke-miterlimit:4;stroke-dasharray:none;stroke-opacity:1"
       d="m 94.412069,109.38941 c 0,49.01117 0,49.01117 0,49.01117"
       id="path10"
       inkscape:connector-curvature="0" />
    <path
       style="opacity:1;fill:#000000;stroke:#000000;stroke-width:0.249544;stroke-linecap:butt;stroke-linejoin:miter;stroke-miterlimit:4;stroke-dasharray:none;stroke-opacity:1"
       d="m 94.412069,158.40058 87.527801,-0.007 z"
       id="path12"
       inkscape:connector-curvature="0"
       sodipodi:nodetypes="ccc" />
    <path
       style="fill:none;stroke:#000000;stroke-width:0.25;stroke-linecap:butt;stroke-linejoin:miter;stroke-miterlimit:4;stroke-dasharray:none;stroke-opacity:1"
       d="m 94.412069,158.40058 c 0.445449,-0.35636 0.914246,-0.68535 1.336347,-1.06908 0.0985,-0.0895 0.24092,-0.6023 0.26727,-0.66818 0.07399,-0.18496 0.17818,-0.35635 0.267269,-0.53454 0.04455,-0.0891 0.07838,-0.18439 0.133635,-0.26726 0.03494,-0.0524 0.09869,-0.0812 0.133634,-0.13364 0.05525,-0.0829 0.07838,-0.18439 0.133636,-0.26727 0.06989,-0.10483 0.178178,-0.17818 0.267269,-0.26727 0.222724,-0.22272 0.44545,-0.44545 0.668173,-0.66817 l 1.069078,-1.06908 c 0.07036,-0.0703 0.329534,-0.36522 0.400905,-0.4009 0.03984,-0.0199 0.102137,0.0315 0.133636,0 0.0315,-0.0315 -0.0315,-0.10214 0,-0.13364 0.0315,-0.0315 0.102137,0.0315 0.133633,0 0.0315,-0.0315 -0.02471,-0.0966 0,-0.13364 0.08802,-0.13203 0.519163,-0.51916 0.668176,-0.66817 0.0445,-0.0445 0.0891,-0.0891 0.13363,-0.13363 0.0446,-0.0446 0.10547,-0.0773 0.13364,-0.13364 0.0199,-0.0398 -0.0199,-0.0938 0,-0.13363 0.0282,-0.0564 0.10546,-0.0773 0.13363,-0.13364 0.0199,-0.0398 -0.0199,-0.0938 0,-0.13363 0.14774,-0.29548 0.0829,-0.0415 0.26727,-0.13364 0.29548,-0.14773 0.0415,-0.0829 0.13364,-0.26727 0.0282,-0.0563 0.0891,-0.0891 0.13363,-0.13363 0.0446,-0.0446 0.0891,-0.0891 0.13364,-0.13364 l 0.53454,-0.53454 c 0.0445,-0.0445 0.0891,-0.0891 0.13363,-0.13363 0.0445,-0.0445 0.10546,-0.0773 0.13363,-0.13364 0.0199,-0.0398 -0.0199,-0.0938 0,-0.13363 0.0282,-0.0563 0.10547,-0.0773 0.13364,-0.13363 0.0199,-0.0399 -0.0199,-0.0938 0,-0.13364 0.0282,-0.0564 0.10546,-0.0773 0.13364,-0.13363 0.0199,-0.0399 -0.0199,-0.0938 0,-0.13364 0.0282,-0.0563 0.10546,-0.0773 0.13363,-0.13363 0.0199,-0.0399 -0.0315,-0.10214 0,-0.13364 0.0315,-0.0315 0.10214,0.0315 0.13363,0 0.0315,-0.0315 -0.0199,-0.0938 0,-0.13363 0.0282,-0.0564 0.10546,-0.0773 0.13364,-0.13364 0.0199,-0.0398 -0.0199,-0.0938 0,-0.13363 0.0282,-0.0563 0.10546,-0.0773 0.13363,-0.13364 0.0199,-0.0398 -0.0199,-0.0938 0,-0.13363 0.0564,-0.11269 0.21093,-0.15458 0.26727,-0.26727 0.0199,-0.0398 -0.0315,-0.10214 0,-0.13364 0.0315,-0.0315 0.10214,0.0315 0.13364,0 0.0315,-0.0315 -0.0199,-0.0938 0,-0.13363 0.0282,-0.0564 0.10546,-0.0773 0.13363,-0.13364 0.0199,-0.0398 -0.0199,-0.0938 0,-0.13363 0.0357,-0.0714 0.33055,-0.33055 0.40091,-0.4009 0.0704,-0.0704 0.36522,-0.32954 0.4009,-0.40091 0.0199,-0.0398 -0.0199,-0.0938 0,-0.13363 0.27808,-0.55616 -0.009,0.14286 0.26727,-0.13364 0.0315,-0.0315 -0.0199,-0.0938 0,-0.13363 0.0563,-0.1127 0.21092,-0.15458 0.26727,-0.26727 0.0199,-0.0399 -0.0199,-0.0938 0,-0.13364 0.0282,-0.0563 0.10546,-0.0773 0.13363,-0.13363 0.0199,-0.0399 -0.0199,-0.0938 0,-0.13364 0.0282,-0.0563 0.10547,-0.0773 0.13364,-0.13363 0.0398,-0.0797 -0.0398,-0.18759 0,-0.26727 0.0282,-0.0563 0.10546,-0.0773 0.13364,-0.13363 0.0199,-0.0399 -0.0199,-0.0938 0,-0.13364 0.0282,-0.0563 0.10546,-0.0773 0.13363,-0.13364 0.0199,-0.0398 -0.0199,-0.0938 0,-0.13363 0.0282,-0.0564 0.10546,-0.0773 0.13363,-0.13364 0.0398,-0.0797 -0.0398,-0.18758 0,-0.26726 0.0282,-0.0563 0.10547,-0.0773 0.13364,-0.13364 0.0199,-0.0398 -0.0199,-0.0938 0,-0.13363 0.0563,-0.11269 0.21092,-0.15458 0.26727,-0.26727 0.0199,-0.0399 -0.0199,-0.0938 0,-0.13364 0.0564,-0.11269 0.19738,-0.16244 0.26727,-0.26727 0.20484,-0.30726 0.0624,-0.3609 0.26727,-0.66817 0.0349,-0.0524 0.10546,-0.0773 0.13363,-0.13364 0.0199,-0.0398 -0.0141,-0.0914 0,-0.13363 0.0315,-0.0945 0.0891,-0.17818 0.13364,-0.26727 0.0445,-0.0891 0.0784,-0.18439 0.13363,-0.26727 0.0349,-0.0524 0.10546,-0.0773 0.13364,-0.13363 0.0199,-0.0399 -0.0199,-0.0938 0,-0.13364 0.0282,-0.0564 0.10546,-0.0773 0.13363,-0.13363 0.0398,-0.0797 -0.0398,-0.18759 0,-0.26728 0.0282,-0.0563 0.10546,-0.0773 0.13364,-0.13363 0.0398,-0.0797 -0.0398,-0.18759 0,-0.26727 0.0282,-0.0563 0.10546,-0.0773 0.13363,-0.13363 0.0199,-0.0399 0,-0.0891 0,-0.13364 v -0.13364 -0.8018 -0.13364 c 0,-0.0445 -0.0199,-0.0938 0,-0.13363 0.0282,-0.0563 0.10546,-0.0773 0.13363,-0.13364 0.0534,-0.10691 -0.0534,-0.294 0,-0.4009 0.0282,-0.0564 0.10547,-0.0773 0.13364,-0.13364 0.042,-0.084 -0.042,-0.45054 0,-0.53454 0.0282,-0.0563 0.10546,-0.0773 0.13364,-0.13363 0.0422,-0.0843 -0.0421,-0.58387 0,-0.66818 0.0282,-0.0563 0.10546,-0.0773 0.13363,-0.13363 0.0398,-0.0797 -0.0398,-0.18759 0,-0.26727 0.0282,-0.0564 0.10546,-0.0773 0.13363,-0.13363 0.0265,-0.053 -0.0273,-0.37359 0,-0.40091 0.0315,-0.0315 0.10214,0.0315 0.13364,0 0.063,-0.063 -0.063,-0.20427 0,-0.26727 0.0315,-0.0315 0.10213,0.0315 0.13363,0 0.063,-0.063 -0.063,-0.20427 0,-0.26727 0.0315,-0.0315 0.10214,0.0315 0.13364,0 0.063,-0.063 -0.0398,-0.18758 0,-0.26727 0.0282,-0.0564 0.10546,-0.0773 0.13363,-0.13363 0.0199,-0.0398 0,-0.0891 0,-0.13364 0.0891,-0.0891 0.19738,-0.16243 0.26727,-0.26726 0.0247,-0.0371 -0.0199,-0.0938 0,-0.13364 0.0282,-0.0563 0.10546,-0.0773 0.13364,-0.13364 0.0199,-0.0398 -0.0315,-0.10213 0,-0.13363 0.063,-0.063 0.20427,0.063 0.26727,0 0.0315,-0.0315 -0.0199,-0.0938 0,-0.13363 0.0282,-0.0563 0.0891,-0.0891 0.13363,-0.13364 0.0445,-0.0445 0.0773,-0.10546 0.13364,-0.13363 0.0398,-0.0199 0.10213,0.0315 0.13363,0 0.0315,-0.0315 -0.0199,-0.0938 0,-0.13364 0.0282,-0.0564 0.10546,-0.0773 0.13364,-0.13363 0.0199,-0.0398 -0.0315,-0.10214 0,-0.13364 0.0315,-0.0315 0.10213,0.0315 0.13363,0 0.0315,-0.0315 -0.0199,-0.0938 0,-0.13363 0.0564,-0.1127 0.21093,-0.15458 0.26727,-0.26727 0.0199,-0.0398 -0.0199,-0.0938 0,-0.13364 0.0282,-0.0563 0.10546,-0.0773 0.13364,-0.13363 0.0199,-0.0398 -0.0199,-0.0938 0,-0.13364 0.0282,-0.0563 0.10546,-0.0773 0.13363,-0.13363 0.0199,-0.0398 -0.0199,-0.0938 0,-0.13364 0.0282,-0.0564 0.10546,-0.0773 0.13364,-0.13363 0.0199,-0.0398 -0.0315,-0.10214 0,-0.13364 0.0315,-0.0315 0.10213,0.0315 0.13363,0 0.2765,-0.27649 -0.42252,0.0108 0.13363,-0.26727 0.18433,-0.0922 0.11954,0.16184 0.26727,-0.13363 0.0199,-0.0398 -0.0199,-0.0938 0,-0.13364 0.0282,-0.0564 0.10547,-0.0773 0.13364,-0.13363 0.0199,-0.0398 -0.0199,-0.0938 0,-0.13363 0.0563,-0.1127 0.21092,-0.15458 0.26727,-0.26727 0.0398,-0.0797 -0.063,-0.20428 0,-0.26727 0.0315,-0.0315 0.10213,0.0315 0.13363,0 0.063,-0.063 -0.063,-0.20428 0,-0.26727 0.0315,-0.0315 0.10214,0.0315 0.13364,0 0.0315,-0.0315 -0.0199,-0.0938 0,-0.13364 0.0564,-0.11269 0.21092,-0.15458 0.26727,-0.26727 0.0398,-0.0797 -0.0398,-0.18758 0,-0.26727 0.0564,-0.11269 0.21092,-0.15458 0.26727,-0.26727 0.0199,-0.0398 -0.0199,-0.0938 0,-0.13363 0.0563,-0.11269 0.21092,-0.15458 0.26727,-0.26727 0.0398,-0.0797 -0.0398,-0.18759 0,-0.26727 0.27808,-0.55616 -0.009,0.14286 0.26726,-0.13364 0.0315,-0.0315 -0.0199,-0.0938 0,-0.13363 0.0564,-0.11269 0.21093,-0.15458 0.26728,-0.26727 0.0199,-0.0398 -0.0199,-0.0938 0,-0.13364 0.0282,-0.0563 0.10546,-0.0773 0.13363,-0.13363 0.0199,-0.0398 -0.0199,-0.0938 0,-0.13363 0.0309,-0.0619 0.45594,-0.45595 0.53454,-0.53454 0.0445,-0.0446 0.10546,-0.0773 0.13363,-0.13364 0.0199,-0.0398 -0.0199,-0.0938 0,-0.13363 0.0564,-0.11269 0.21093,-0.15458 0.26727,-0.26727 0.0199,-0.0398 -0.0199,-0.0938 0,-0.13364 0.0802,-0.16036 0.32073,-0.24054 0.40091,-0.4009 0.0199,-0.0398 -0.0199,-0.0938 0,-0.13364 0.0563,-0.11269 0.21092,-0.15457 0.26727,-0.26726 0.0199,-0.0398 -0.0199,-0.0938 0,-0.13364 0.0282,-0.0564 0.10546,-0.0773 0.13363,-0.13364 0.0199,-0.0398 -0.0199,-0.0938 0,-0.13363 0.0658,-0.1315 0.46879,-0.40304 0.53454,-0.53454 0.0199,-0.0398 -0.0199,-0.0938 0,-0.13363 0.0426,-0.0851 0.56317,-0.56317 0.66817,-0.66818 0.44545,-0.44545 0.8909,-0.8909 1.33635,-1.33635 0.0786,-0.0786 0.5036,-0.47265 0.53454,-0.53453 0.0199,-0.0398 -0.0199,-0.0938 0,-0.13364 0.0563,-0.11269 0.21092,-0.15458 0.26727,-0.26727 0.0199,-0.0398 -0.0199,-0.0938 0,-0.13363 0.0282,-0.0564 0.10546,-0.0773 0.13364,-0.13364 0.0199,-0.0398 -0.0199,-0.0938 0,-0.13363 0.0563,-0.11269 0.21092,-0.15458 0.26727,-0.26727 0.0199,-0.0398 -0.0199,-0.0938 0,-0.13364 0.0282,-0.0563 0.10546,-0.0773 0.13363,-0.13363 0.0398,-0.0797 -0.063,-0.20427 0,-0.26727 0.0315,-0.0315 0.0938,0.0199 0.13363,0 0.1315,-0.0658 0.40304,-0.46879 0.53454,-0.53454 0.0398,-0.0199 0.10214,0.0315 0.13364,0 0.0315,-0.0315 -0.0199,-0.0938 0,-0.13364 0.0178,-0.0355 0.36542,-0.38316 0.4009,-0.4009 0.0398,-0.0199 0.10214,0.0315 0.13364,0 0.0315,-0.0315 -0.0199,-0.0938 0,-0.13363 0.14774,-0.29548 0.0829,-0.0415 0.26727,-0.13364 0.0563,-0.0282 0.0891,-0.0891 0.13363,-0.13363 0.0786,-0.0786 0.47266,-0.5036 0.53454,-0.53454 0.0398,-0.0199 0.0938,0.0199 0.13364,0 0.0563,-0.0282 0.0891,-0.0891 0.13363,-0.13364 0.10501,-0.105 0.58305,-0.62561 0.66818,-0.66817 0.0398,-0.0199 0.0938,0.0199 0.13363,0 0.0714,-0.0357 0.33055,-0.33055 0.4009,-0.40091 0.26727,-0.26726 0.53454,-0.53453 0.80181,-0.80181 0.0446,-0.0445 0.0773,-0.10546 0.13364,-0.13363 0.18433,-0.0922 0.11953,0.16184 0.26727,-0.13363 0.0199,-0.0398 -0.0315,-0.10214 0,-0.13364 0.27649,-0.27649 -0.0108,0.42252 0.26727,-0.13363 0.0199,-0.0398 -0.0315,-0.10214 0,-0.13364 0.0315,-0.0315 0.0938,0.0199 0.13363,0 0.1315,-0.0657 0.40304,-0.46879 0.53454,-0.53454 0.0398,-0.0199 0.0938,0.0199 0.13363,0 0.0564,-0.0282 0.0773,-0.10546 0.13364,-0.13363 0.0398,-0.0199 0.10213,0.0315 0.13363,0 0.0315,-0.0315 -0.0315,-0.10214 0,-0.13364 0.0315,-0.0315 0.0938,0.0199 0.13364,0 0.0563,-0.0282 0.0891,-0.0891 0.13363,-0.13363 0.0445,-0.0446 0.10547,-0.0773 0.13364,-0.13364 0.0199,-0.0398 -0.0315,-0.10213 0,-0.13363 0.063,-0.063 0.20427,0.063 0.26727,0 0.0315,-0.0315 -0.0315,-0.10214 0,-0.13364 0.063,-0.063 0.18758,0.0398 0.26727,0 0.0563,-0.0282 0.0891,-0.0891 0.13363,-0.13363 0.0445,-0.0445 0.10546,-0.0773 0.13364,-0.13363 0.0199,-0.0398 -0.0315,-0.10214 0,-0.13364 0.0315,-0.0315 0.0938,0.0199 0.13363,0 0.0563,-0.0282 0.0812,-0.0987 0.13364,-0.13363 0.0829,-0.0553 0.19683,-0.0632 0.26726,-0.13364 0.0315,-0.0315 -0.0315,-0.10214 0,-0.13363 0.0315,-0.0315 0.0938,0.0199 0.13364,0 0.11269,-0.0564 0.15458,-0.21093 0.26727,-0.26727 0.0797,-0.0398 0.18759,0.0398 0.26727,0 0.0563,-0.0282 0.0773,-0.10547 0.13363,-0.13364 0.0797,-0.0398 0.20428,0.063 0.26727,0 0.0315,-0.0315 -0.0315,-0.10213 0,-0.13363 0.0273,-0.0273 0.34792,0.0265 0.40091,0 0.0564,-0.0282 0.0773,-0.10547 0.13363,-0.13364 0.0811,-0.0406 0.72066,0.0406 0.80181,0 0.0564,-0.0282 0.0773,-0.10546 0.13364,-0.13363 0.0398,-0.0199 0.0891,0 0.13363,0 0.0947,0 0.76726,0.0173 0.80181,0 0.0564,-0.0282 0.0773,-0.10546 0.13363,-0.13364 0.10691,-0.0534 0.294,0.0534 0.40091,0 0.0563,-0.0282 0.0773,-0.10546 0.13363,-0.13363 0.0407,-0.0203 0.34072,0 0.40091,0 h 0.93544 c 0.093,0 0.61985,-0.0242 0.66817,0 0.0563,0.0282 0.0773,0.10546 0.13364,0.13363 0.0797,0.0398 0.18759,-0.0398 0.26727,0 0.0563,0.0282 0.0773,0.10547 0.13364,0.13364 0.0398,0.0199 0.0938,-0.0199 0.13363,0 0.0563,0.0282 0.0773,0.10546 0.13364,0.13363 0.0398,0.0199 0.0938,-0.0199 0.13363,0 0.11269,0.0563 0.15458,0.21093 0.26727,0.26727 0.0398,0.0199 0.0938,-0.0199 0.13364,0 0.0564,0.0282 0.0773,0.10546 0.13363,0.13364 0.0398,0.0199 0.0938,-0.0199 0.13364,0 0.11269,0.0564 0.15457,0.21092 0.26727,0.26727 0.0398,0.0199 0.0938,-0.0199 0.13363,0 0.0563,0.0282 0.0773,0.10546 0.13363,0.13363 0.0398,0.0199 0.0938,-0.0199 0.13364,0 0.11269,0.0563 0.15458,0.21092 0.26727,0.26727 0.0398,0.0199 0.0938,-0.0199 0.13363,0 0.13151,0.0658 0.40304,0.46879 0.53454,0.53454 0.0398,0.0199 0.0938,-0.0199 0.13364,0 0.11269,0.0563 0.15458,0.21092 0.26727,0.26727 0.0398,0.0199 0.0938,-0.0199 0.13363,0 0.0563,0.0282 0.0891,0.0891 0.13364,0.13363 0.0445,0.0445 0.0891,0.0891 0.13363,0.13364 l 0.53454,0.53454 1.06908,1.06908 c 0.0786,0.0786 0.47265,0.50359 0.53454,0.53453 0.0398,0.0199 0.0938,-0.0199 0.13363,0 0.0564,0.0282 0.0891,0.0891 0.13364,0.13364 0.0445,0.0446 0.0891,0.0891 0.13363,0.13363 l 0.53454,0.53454 c 0.0445,0.0445 0.0773,0.10547 0.13364,0.13364 0.0398,0.0199 0.0938,-0.0199 0.13363,0 0.0563,0.0282 0.0773,0.10546 0.13363,0.13363 0.0398,0.0199 0.0938,-0.0199 0.13364,0 0.16036,0.0802 0.24054,0.32073 0.40091,0.40091 0.0398,0.0199 0.0938,-0.0199 0.13363,0 0.0619,0.0309 0.45594,0.45594 0.53454,0.53454 l 0.53454,0.53453 c 0.0445,0.0446 0.0891,0.0891 0.13363,0.13364 0.0445,0.0445 0.10546,0.0773 0.13364,0.13363 0.0199,0.0398 -0.0199,0.0938 0,0.13364 0.0657,0.1315 0.46879,0.40304 0.53454,0.53454 0.0199,0.0398 -0.0199,0.0938 0,0.13363 0.0563,0.11269 0.21092,0.15458 0.26727,0.26727 0.0199,0.0398 -0.0199,0.0938 0,0.13364 0.0563,0.11269 0.21092,0.15458 0.26727,0.26727 0.0199,0.0398 -0.0199,0.0938 0,0.13363 0.0282,0.0563 0.10546,0.0773 0.13363,0.13364 0.0199,0.0398 -0.0199,0.0938 0,0.13363 0.0563,0.11269 0.21092,0.15458 0.26727,0.26727 0.0199,0.0398 -0.0199,0.0938 0,0.13364 0.0282,0.0564 0.10546,0.0773 0.13363,0.13363 0.0199,0.0398 -0.0315,0.10214 0,0.13363 0.0315,0.0315 0.10214,-0.0315 0.13364,0 0.0315,0.0315 -0.0199,0.0938 0,0.13364 0.0563,0.11269 0.21092,0.15458 0.26727,0.26727 0.0398,0.0797 -0.0398,0.18759 0,0.26727 0.0563,0.11269 0.21092,0.15458 0.26727,0.26727 0.0398,0.0797 -0.0398,0.18758 0,0.26727 0.0282,0.0563 0.10546,0.0773 0.13363,0.13363 0.0199,0.0398 -0.0199,0.0938 0,0.13364 0.0282,0.0563 0.0891,0.0891 0.13364,0.13363 0.0786,0.0786 0.5036,0.47266 0.53454,0.53454 0.0398,0.0797 -0.0398,0.18759 0,0.26727 0.0282,0.0564 0.10546,0.0773 0.13363,0.13364 0.0199,0.0398 -0.0199,0.0938 0,0.13363 0.0282,0.0564 0.10546,0.0773 0.13364,0.13363 0.0199,0.0398 -0.0199,0.0938 0,0.13364 0.0802,0.16036 0.32072,0.24054 0.4009,0.4009 0.19663,0.39327 -0.30958,-0.17594 0.13364,0.26727 0.0445,0.0445 0.0891,0.0891 0.13363,0.13364 0.0445,0.0446 0.10546,0.0773 0.13363,0.13363 0.0398,0.0797 -0.0398,0.18759 0,0.26727 0.0563,0.11269 0.21093,0.15458 0.26727,0.26727 0.0398,0.0797 -0.0398,0.18759 0,0.26727 0.0282,0.0563 0.10547,0.0773 0.13364,0.13364 0.0199,0.0398 -0.0199,0.0938 0,0.13363 0.0282,0.0563 0.10546,0.0773 0.13363,0.13364 0.0398,0.0797 -0.0398,0.18758 0,0.26726 0.0282,0.0563 0.10546,0.0773 0.13364,0.13364 0.0398,0.0797 -0.063,0.20427 0,0.26727 0.0315,0.0315 0.10213,-0.0315 0.13363,0 0.063,0.063 -0.0398,0.18759 0,0.26727 0.0282,0.0563 0.10547,0.0773 0.13364,0.13363 0.0199,0.0398 -0.0199,0.0938 0,0.13364 0.0282,0.0564 0.10546,0.0773 0.13363,0.13363 0.0398,0.0797 -0.0398,0.18759 0,0.26727 0.0563,0.11269 0.21093,0.15458 0.26727,0.26727 0.0199,0.0398 -0.0199,0.0938 0,0.13364 0.0564,0.11269 0.21093,0.15458 0.26727,0.26727 0.0199,0.0398 -0.0315,0.10213 0,0.13363 0.0315,0.0315 0.10214,-0.0315 0.13364,0 0.0315,0.0315 -0.0199,0.0938 0,0.13364 0.0282,0.0564 0.10546,0.0773 0.13363,0.13363 0.0199,0.0398 -0.0199,0.0938 0,0.13364 0.0282,0.0563 0.10546,0.0773 0.13364,0.13363 0.0199,0.0398 -0.0199,0.0938 0,0.13364 0.0282,0.0563 0.10546,0.0773 0.13363,0.13363 0.0199,0.0398 -0.0199,0.0938 0,0.13364 0.0282,0.0563 0.10546,0.0773 0.13364,0.13363 0.0398,0.0797 -0.0398,0.18759 0,0.26727 0.0563,0.11269 0.21092,0.15458 0.26726,0.26727 0.0199,0.0398 -0.0199,0.0938 0,0.13363 0.0282,0.0563 0.10547,0.0773 0.13364,0.13364 0.0398,0.0797 -0.0398,0.18758 0,0.26727 0.0282,0.0563 0.10546,0.0773 0.13363,0.13363 0.0199,0.0398 -0.0199,0.0938 0,0.13364 0.0282,0.0563 0.10547,0.0773 0.13364,0.13363 0.0199,0.0398 -0.0199,0.0938 0,0.13364 0.0282,0.0564 0.10546,0.0773 0.13364,0.13363 0.0199,0.0398 -0.0199,0.0938 0,0.13364 0.0282,0.0564 0.10546,0.0773 0.13363,0.13363 0.0199,0.0398 -0.0199,0.0938 0,0.13364 0.0563,0.11269 0.21092,0.15457 0.26727,0.26727 0.0199,0.0398 -0.0199,0.0938 0,0.13363 0.0564,0.11269 0.21092,0.15458 0.26727,0.26727 0.0199,0.0398 -0.0199,0.0938 0,0.13363 0.0282,0.0563 0.10546,0.0773 0.13363,0.13364 0.0199,0.0398 -0.0199,0.0938 0,0.13364 0.0282,0.0563 0.10546,0.0773 0.13364,0.13363 0.0398,0.0797 -0.0398,0.18758 0,0.26727 0.0282,0.0564 0.10546,0.0773 0.13363,0.13363 0.0199,0.0398 -0.0199,0.0938 0,0.13364 0.0282,0.0563 0.10546,0.0773 0.13364,0.13363 0.0199,0.0398 -0.0199,0.0938 0,0.13364 0.0563,0.11269 0.21092,0.15458 0.26727,0.26727 0.0199,0.0398 -0.0199,0.0938 0,0.13363 0.0658,0.1315 0.46879,0.40304 0.53454,0.53454 0.0199,0.0398 -0.0199,0.0938 0,0.13364 0.0563,0.11269 0.19738,0.16243 0.26726,0.26726 0.0553,0.0829 0.0784,0.1844 0.13364,0.26727 0.0349,0.0524 0.0891,0.0891 0.13364,0.13364 0.13363,0.13364 0.26726,0.26727 0.4009,0.4009 0.0446,0.0445 0.10546,0.0773 0.13363,0.13364 0.0199,0.0398 -0.0199,0.0938 0,0.13363 0.0309,0.0619 0.45595,0.45594 0.53454,0.53454 0.0445,0.0445 0.10546,0.0773 0.13364,0.13364 0.0199,0.0398 -0.0199,0.0938 0,0.13363 0.0282,0.0563 0.10546,0.0773 0.13363,0.13364 0.0199,0.0398 -0.0199,0.0938 0,0.13363 0.14774,0.29547 0.0829,0.0415 0.26727,0.13364 0.0563,0.0282 0.0773,0.10546 0.13364,0.13363 0.0398,0.0199 0.0938,-0.0199 0.13363,0 0.0564,0.0282 0.0891,0.0891 0.13364,0.13363 0.0445,0.0445 0.0891,0.0891 0.13363,0.13364 l 0.53454,0.53454 0.13364,0.13364 c 0.0445,0.0445 0.0773,0.10546 0.13363,0.13363 0.0398,0.0199 0.0938,-0.0199 0.13363,0 0.16037,0.0802 0.24055,0.32073 0.40091,0.4009 0.0398,0.0199 0.0914,-0.0141 0.13363,0 0.96797,0.32266 -0.21069,-0.0385 0.40091,0.26728 0.0398,0.0199 0.0938,-0.0199 0.13363,0 0.11269,0.0563 0.15458,0.21092 0.26727,0.26727 0.0398,0.0199 0.0938,-0.0199 0.13364,0 0.0563,0.0282 0.0773,0.10546 0.13363,0.13363 0.0398,0.0199 0.0938,-0.0199 0.13364,0 0.0564,0.0282 0.0773,0.10546 0.13363,0.13363 0.0398,0.0199 0.0938,-0.0199 0.13363,0 0.0563,0.0282 0.0773,0.10547 0.13364,0.13364 0.0797,0.0398 0.18758,-0.0398 0.26727,0 0.0563,0.0282 0.0773,0.10546 0.13364,0.13363 0.0797,0.0399 0.18758,-0.0398 0.26726,0 0.0564,0.0282 0.0773,0.10547 0.13364,0.13364 0.10691,0.0534 0.294,-0.0535 0.4009,0 0.0563,0.0282 0.0773,0.10546 0.13364,0.13363 0.0797,0.0399 0.18758,-0.0398 0.26727,0 0.11269,0.0563 0.15458,0.21093 0.26727,0.26727 0.084,0.042 0.45054,-0.042 0.53454,0 0.0563,0.0282 0.0773,0.10547 0.13363,0.13364 0.0797,0.0398 0.18759,-0.0398 0.26727,0 0.0564,0.0282 0.0773,0.10546 0.13364,0.13363 0.053,0.0265 0.37358,-0.0273 0.4009,0 0.0315,0.0315 -0.0315,0.10214 0,0.13364 0.0315,0.0315 0.0891,0 0.13363,0 0.093,0 0.61985,-0.0242 0.66818,0 0.0564,0.0282 0.0773,0.10546 0.13363,0.13363 0.10691,0.0535 0.294,-0.0534 0.40091,0 0.0563,0.0282 0.0773,0.10546 0.13363,0.13364 0.10691,0.0535 0.294,-0.0535 0.4009,0 0.0564,0.0282 0.0773,0.10546 0.13364,0.13363 0.084,0.042 0.45055,-0.042 0.53454,0 0.0563,0.0282 0.0773,0.10546 0.13363,0.13364 0.053,0.0265 0.37359,-0.0273 0.40091,0 0.0315,0.0315 -0.0315,0.10213 0,0.13363 0.0315,0.0315 0.0891,0 0.13363,0 h 1.06908 0.93544 c 0.0602,0 0.36024,-0.0204 0.40091,0 0.0563,0.0282 0.0773,0.10546 0.13364,0.13364 0.0797,0.0398 0.18758,-0.0399 0.26726,0 0.0563,0.0282 0.0773,0.10546 0.13364,0.13363 0.10691,0.0534 0.29399,-0.0534 0.4009,0 0.0563,0.0282 0.0773,0.10546 0.13364,0.13364 0.0843,0.0422 0.58386,-0.0422 0.66817,0 0.0564,0.0282 0.0773,0.10546 0.13364,0.13363 0.0923,0.0462 0.62126,-0.0469 0.66817,0 0.0315,0.0315 -0.0315,0.10214 0,0.13363 0.0315,0.0315 0.0938,-0.0199 0.13364,0 0.0563,0.0282 0.0773,0.10547 0.13363,0.13364 0.0797,0.0398 0.18759,-0.0398 0.26727,0 0.0564,0.0282 0.0773,0.10546 0.13363,0.13363 0.0797,0.0399 0.18759,-0.0398 0.26727,0 0.0563,0.0282 0.0773,0.10547 0.13364,0.13364 0.0398,0.0199 0.0938,-0.0199 0.13363,0 0.0563,0.0282 0.0773,0.10546 0.13364,0.13364 0.10691,0.0534 0.294,-0.0535 0.40091,0 0.0563,0.0282 0.0773,0.10546 0.13363,0.13363 0.0797,0.0398 0.18759,-0.0398 0.26727,0 0.0563,0.0282 0.0773,0.10546 0.13364,0.13363 0.0797,0.0398 0.18758,-0.0398 0.26727,0 0.0563,0.0282 0.0812,0.0987 0.13363,0.13364 0.0829,0.0553 0.17818,0.0891 0.26727,0.13363 0.0891,0.0446 0.1696,0.1141 0.26727,0.13364 0.13104,0.0262 0.26986,-0.0262 0.4009,0 0.0977,0.0195 0.17479,0.0966 0.26727,0.13363 0.13079,0.0523 0.26727,0.0891 0.40091,0.13364 0.13363,0.0445 0.26277,0.10601 0.4009,0.13363 0.0874,0.0175 0.18084,-0.0216 0.26727,0 0.19326,0.0483 0.34555,0.20427 0.53454,0.26727 0.0845,0.0282 0.18758,-0.0398 0.26727,0 0.0563,0.0282 0.0773,0.10546 0.13364,0.13364 0.0797,0.0398 0.18758,-0.0398 0.26726,0 0.0563,0.0282 0.0773,0.10546 0.13364,0.13363 0.10691,0.0534 0.29399,-0.0534 0.4009,0 0.0563,0.0282 0.0773,0.10546 0.13364,0.13364 0.0797,0.0398 0.18758,-0.0399 0.26727,0 0.0563,0.0282 0.0773,0.10546 0.13363,0.13363 0.0797,0.0398 0.20428,-0.063 0.26727,0 0.0315,0.0315 -0.0315,0.10214 0,0.13364 0.0366,0.0366 0.46205,-0.0362 0.53454,0 0.0563,0.0282 0.0773,0.10546 0.13363,0.13363 0.10691,0.0534 0.294,-0.0534 0.40091,0 0.0563,0.0282 0.0773,0.10546 0.13363,0.13363 0.0399,0.0199 0.0938,-0.0199 0.13364,0 0.0563,0.0282 0.0773,0.10547 0.13363,0.13364 0.0398,0.0199 0.0938,-0.0199 0.13364,0 0.0563,0.0282 0.0773,0.10546 0.13363,0.13363 0.0399,0.0199 0.0938,-0.0199 0.13364,0 0.11269,0.0563 0.15458,0.21093 0.26727,0.26727 0.0797,0.0399 0.18758,-0.0398 0.26727,0 0.0563,0.0282 0.0773,0.10546 0.13363,0.13364 0.0797,0.0398 0.18759,-0.0398 0.26727,0 0.0564,0.0282 0.0773,0.10546 0.13364,0.13363 0.0843,0.0422 0.58386,-0.0421 0.66817,0 0.0563,0.0282 0.0773,0.10547 0.13364,0.13364 0.1069,0.0534 0.29399,-0.0534 0.4009,0 0.0563,0.0282 0.0773,0.10546 0.13363,0.13363 0.0483,0.0242 0.57523,0 0.66818,0 0.0445,0 0.10213,-0.0315 0.13363,0 0.0315,0.0315 -0.0315,0.10214 0,0.13364 0.0668,0.0668 0.33409,-0.0668 0.40091,0 0.0315,0.0315 -0.0315,0.10214 0,0.13363 0.004,0.004 0.24297,0.0112 0.27538,0.0112"
       id="path16"
       inkscape:connector-curvature="0"
       sodipodi:nodetypes="cccssssscccsssccccccccccccccccccccssccccscssccccccsccccccccccccccccssccscscccccccsccsccsssssssssssssssscssssssssssssscsssssssscsssscssssscssscscscsssscscssscssssssssscssscssssssscsscssssssscssscsscsssssssssssssssssssssssssssssscsscssscccccscccscccscccsccccccccccccscsccscccscccscccccccssccsccccsccccccscccscccccccssccccccccsscccccccccccccccccccccccccccccccccccccccsccssscsccscsccsscscssscscsccccccccsscccsssscccscscsssscsccscccccsscccccscccccccccsccccscccccccscsscccccsccscccccccccsssssc" />
    <text
       xml:space="preserve"
       style="font-style:normal;font-weight:normal;font-size:4.23333px;line-height:1.25;font-family:sans-serif;letter-spacing:0px;word-spacing:0px;fill:#000000;fill-opacity:1;stroke:none;stroke-width:0.264583"
       x="126.04107"
       y="163.70227"
       id="text2687"><tspan
         sodipodi:role="line"
         id="tspan2685"
         x="126.04107"
         y="163.70227"
         style="font-style:normal;font-variant:normal;font-weight:normal;font-stretch:normal;font-size:4.23333px;font-family:sans-serif;-inkscape-font-specification:'sans-serif, Normal';font-variant-ligatures:normal;font-variant-caps:normal;font-variant-numeric:normal;font-feature-settings:normal;text-align:start;writing-mode:lr-tb;text-anchor:start;stroke-width:0.264583">Complexity</tspan></text>
    <text
       xml:space="preserve"
       style="font-style:normal;font-weight:normal;font-size:4.23333px;line-height:1.25;font-family:sans-serif;letter-spacing:0px;word-spacing:0px;fill:#000000;fill-opacity:1;stroke:none;stroke-width:0.264583"
       x="81.289268"
       y="134.96068"
       id="text2687-9"><tspan
         sodipodi:role="line"
         id="tspan2685-8"
         x="81.289268"
         y="134.96068"
         style="font-style:normal;font-variant:normal;font-weight:normal;font-stretch:normal;font-size:4.23333px;font-family:sans-serif;-inkscape-font-specification:'sans-serif, Normal';font-variant-ligatures:normal;font-variant-caps:normal;font-variant-numeric:normal;font-feature-settings:normal;text-align:start;writing-mode:lr-tb;text-anchor:start;stroke-width:0.264583">Value</tspan></text>
    <text
       xml:space="preserve"
       style="font-style:normal;font-weight:normal;font-size:10.5833px;line-height:0;font-family:sans-serif;letter-spacing:0px;word-spacing:0px;fill:#000000;fill-opacity:1;stroke:none;stroke-width:0.264583"
       x="153.84923"
       y="111.74985"
       id="text2687-8"><tspan
         sodipodi:role="line"
         x="153.84923"
         y="111.74985"
         style="font-style:normal;font-variant:normal;font-weight:normal;font-stretch:normal;font-size:4.23333px;line-height:0.95;font-family:sans-serif;-inkscape-font-specification:'sans-serif, Normal';font-variant-ligatures:normal;font-variant-caps:normal;font-variant-numeric:normal;font-feature-settings:normal;text-align:start;writing-mode:lr-tb;text-anchor:start;stroke-width:0.264583"
         id="tspan2739" /><tspan
         sodipodi:role="line"
         x="153.84923"
         y="116.19485"
         style="font-style:normal;font-variant:normal;font-weight:normal;font-stretch:normal;font-size:4.23333px;line-height:1.15;font-family:sans-serif;-inkscape-font-specification:'sans-serif, Normal';font-variant-ligatures:normal;font-variant-caps:normal;font-variant-numeric:normal;font-feature-settings:normal;text-align:start;writing-mode:lr-tb;text-anchor:start;stroke-width:0.264583"
         id="tspan2760"><tspan
           style="font-size:3.52778px"
           id="tspan2779">S</tspan><tspan
           style="font-size:3.52778px"
           id="tspan2777">oftware</tspan></tspan><tspan
         sodipodi:role="line"
         x="153.84923"
         y="120.47421"
         style="font-style:normal;font-variant:normal;font-weight:normal;font-stretch:normal;font-size:3.52778px;line-height:1.15;font-family:sans-serif;-inkscape-font-specification:'sans-serif, Normal';font-variant-ligatures:normal;font-variant-caps:normal;font-variant-numeric:normal;font-feature-settings:normal;text-align:start;writing-mode:lr-tb;text-anchor:start;stroke-width:0.264583"
         id="tspan847">not designed </tspan><tspan
         sodipodi:role="line"
         x="153.84923"
         y="124.53115"
         style="font-style:normal;font-variant:normal;font-weight:normal;font-stretch:normal;font-size:3.52778px;line-height:1.15;font-family:sans-serif;-inkscape-font-specification:'sans-serif, Normal';font-variant-ligatures:normal;font-variant-caps:normal;font-variant-numeric:normal;font-feature-settings:normal;text-align:start;writing-mode:lr-tb;text-anchor:start;stroke-width:0.264583"
         id="tspan849">for personal </tspan><tspan
         sodipodi:role="line"
         x="153.84923"
         y="128.5881"
         style="font-style:normal;font-variant:normal;font-weight:normal;font-stretch:normal;font-size:3.52778px;line-height:1.15;font-family:sans-serif;-inkscape-font-specification:'sans-serif, Normal';font-variant-ligatures:normal;font-variant-caps:normal;font-variant-numeric:normal;font-feature-settings:normal;text-align:start;writing-mode:lr-tb;text-anchor:start;stroke-width:0.264583"
         id="tspan851">task management</tspan></text>
    <text
       xml:space="preserve"
       style="font-style:normal;font-weight:normal;font-size:3.52778px;line-height:0;font-family:sans-serif;letter-spacing:0px;word-spacing:0px;fill:#000000;fill-opacity:1;stroke:none;stroke-width:0.264583"
       x="111.69249"
       y="148.03093"
       id="text2687-8-9"><tspan
         sodipodi:role="line"
         x="111.69249"
         y="148.03093"
         style="font-style:normal;font-variant:normal;font-weight:normal;font-stretch:normal;font-size:3.52778px;line-height:0.95;font-family:sans-serif;-inkscape-font-specification:'sans-serif, Normal';font-variant-ligatures:normal;font-variant-caps:normal;font-variant-numeric:normal;font-feature-settings:normal;text-align:start;writing-mode:lr-tb;text-anchor:start;stroke-width:0.264583"
         id="tspan2760-3">Analog </tspan><tspan
         sodipodi:role="line"
         x="111.69249"
         y="151.38232"
         style="font-style:normal;font-variant:normal;font-weight:normal;font-stretch:normal;font-size:3.52778px;line-height:0.95;font-family:sans-serif;-inkscape-font-specification:'sans-serif, Normal';font-variant-ligatures:normal;font-variant-caps:normal;font-variant-numeric:normal;font-feature-settings:normal;text-align:start;writing-mode:lr-tb;text-anchor:start;stroke-width:0.264583"
         id="tspan2792">Notebook</tspan></text>
    <path
       style="fill:none;stroke:#000000;stroke-width:0.206396;stroke-linecap:butt;stroke-linejoin:miter;stroke-miterlimit:4;stroke-dasharray:none;stroke-opacity:1"
       d="m 110.49739,150.248 -4.97581,3.12127"
       id="path2711-2"
       inkscape:connector-curvature="0" />
    <path
       style="fill:none;stroke:#000000;stroke-width:0.264087px;stroke-linecap:butt;stroke-linejoin:miter;stroke-opacity:1"
       d="m 163.7371,143.9048 v 14.57035 z"
       id="path2832" />
    <path
       style="fill:none;stroke:#000000;stroke-width:0.264583px;stroke-linecap:butt;stroke-linejoin:miter;stroke-opacity:1"
       d="m 181.82363,148.83841 -0.0111,9.60351 z"
       id="path3568"
       sodipodi:nodetypes="ccc" />
    <path
       style="fill:url(#pattern3614);fill-opacity:1;stroke:#000000;stroke-width:0.065;stroke-linecap:butt;stroke-linejoin:miter;stroke-miterlimit:4;stroke-dasharray:none;stroke-opacity:1"
       d="M 163.7371,158.47515 V 143.9048 l 2.40432,0.0527 0.69814,0.26329 0.33604,0.0306 0.17482,0.15497 0.49742,-0.0468 0.23982,0.0628 0.58654,0.0799 0.35877,0.29507 0.2276,-0.0479 0.0839,0.1271 0.35785,0.0243 0.3535,0.30763 0.36498,-0.0877 0.20764,0.23035 0.18982,-0.0797 0.19281,0.19822 0.25015,-0.0469 0.70736,0.44964 0.33876,-0.0253 c 0,0 1.04234,0.43074 1.0913,0.43074 0.049,0 0.26583,-0.0756 0.26583,-0.0756 l 0.55068,0.34005 0.24116,-0.0444 0.20897,0.20071 0.17926,-0.0796 0.25088,0.16197 0.32035,-0.0247 0.15912,0.22891 0.19207,-0.0986 0.2466,0.20477 0.14951,-0.0442 0.0553,0.1736 0.48112,-0.0404 0.19426,0.17893 0.32373,-0.0599 1.24499,0.71898 0.47387,0.0974 0.2876,0.19035 0.6222,-0.0212 0.18833,0.10934 0.30839,-0.047 0.24589,0.23192 0.64147,-0.0748 0.12511,0.20868 0.33735,-0.0366 0.13088,0.16207 -0.0111,9.60351 z"
       id="path3598" />
  </g>
</svg>
