<?xml version="1.0" encoding="UTF-8" standalone="no"?>
<svg
   xmlns:osb="http://www.openswatchbook.org/uri/2009/osb"
   xmlns:dc="http://purl.org/dc/elements/1.1/"
   xmlns:cc="http://creativecommons.org/ns#"
   xmlns:rdf="http://www.w3.org/1999/02/22-rdf-syntax-ns#"
   xmlns:svg="http://www.w3.org/2000/svg"
   xmlns="http://www.w3.org/2000/svg"
   version="1.1"
   id="svg5"
   width="395.41916"
   height="208.60509">
  <metadata
     id="metadata11">
    <rdf:RDF>
      <cc:Work
         rdf:about="">
        <dc:format>image/svg+xml</dc:format>
        <dc:type
           rdf:resource="http://purl.org/dc/dcmitype/StillImage" />
        <dc:title></dc:title>
      </cc:Work>
    </rdf:RDF>
  </metadata>
  <defs
     id="defs9">
    <linearGradient
       id="linearGradient927"
       osb:paint="solid">
      <stop
         style="stop-color:#000000;stop-opacity:1;"
         offset="0"
         id="stop925" />
    </linearGradient>
  </defs>
  <pattern
     id="diagonalHatch"
     patternUnits="userSpaceOnUse"
     width="10"
     height="10">
    <path
       d="M-1,1 l2,-2
           M0,10 l10,-10
           M9,11 l2,-2"
       style="stroke:black; stroke-width:1"
       id="path2" />
  </pattern>
  <path
     style="opacity:1;fill:url(#diagonalHatch);fill-opacity:1.0;stroke:none;stroke-width:0.370341;stroke-miterlimit:4;stroke-dasharray:none;stroke-opacity:1"
     d="M 311.47005,157.80768 V 130.5608 l 4.53452,0.19601 c 6.64682,0.28731 18.559,3.29113 24.63358,6.21171 1.07849,0.51852 3.39477,1.32562 5.14731,1.79355 1.75254,0.46794 5.39243,1.56228 8.08864,2.43184 2.6962,0.86957 5.76006,1.73216 6.80857,1.91686 1.0485,0.18472 3.38217,1.08811 5.18592,2.00756 2.09003,1.06536 5.10115,2.03084 8.30174,2.66182 2.7622,0.54456 5.11627,0.9901 5.23127,0.9901 0.11498,0 0.20907,8.16396 0.20907,18.14215 v 18.14216 h -34.07032 -34.0703 z"
     id="path1903" />
  <path
     style="opacity:1;fill:url(#diagonalHatch);fill-opacity:1;stroke:#000000;stroke-width:0.498898;stroke-miterlimit:4;stroke-dasharray:none;stroke-opacity:1"
     d="m 51.161685,184.59856 c 0.06599,-0.0578 0.751854,-0.59562 1.524178,-1.19498 2.16943,-1.68362 2.470624,-2.01705 2.878991,-3.18735 0.46676,-1.33765 1.785577,-4.08219 2.151553,-4.47757 0.160705,-0.17348 0.400388,-0.53091 0.532611,-0.794 0.307464,-0.61175 8.967749,-9.30754 9.269559,-9.30754 0.336341,0 1.114251,-0.79824 1.201108,-1.23254 0.0559,-0.27969 0.531352,-0.81294 1.76798,-1.9835 1.20415,-1.13983 1.69152,-1.6837 1.69152,-1.88776 0,-0.1576 0.113763,-0.38948 0.252472,-0.51515 0.139843,-0.12661 0.252473,-0.38891 0.252473,-0.58779 0,-0.27779 0.05858,-0.35943 0.258897,-0.35943 0.616328,0 1.410633,-0.67964 1.300838,-1.11304 -0.03779,-0.14437 0.598375,-0.86305 1.971137,-2.23162 1.336214,-1.3321 2.025033,-2.10932 2.025033,-2.28484 0,-0.14627 0.113764,-0.36888 0.252473,-0.49455 0.138708,-0.12586 0.252472,-0.35301 0.252472,-0.50506 0,-0.15194 0.113764,-0.37939 0.252473,-0.5051 0.138708,-0.12585 0.252472,-0.35036 0.252472,-0.4992 0,-0.14891 0.22526,-0.5049 0.500183,-0.7912 0.275149,-0.28611 0.536352,-0.66474 0.580611,-0.84098 0.04422,-0.17613 0.160252,-0.38661 0.257385,-0.46742 0.09751,-0.0809 0.176882,-0.27326 0.176882,-0.42754 0,-0.1542 0.113764,-0.38347 0.252473,-0.50918 0.138708,-0.12585 0.252472,-0.35452 0.252472,-0.50831 0,-0.1731 0.286111,-0.56681 0.74967,-1.03177 0.412346,-0.41363 0.787275,-0.90164 0.833159,-1.08446 0.04573,-0.18293 0.162897,-0.39855 0.260409,-0.47936 0.09751,-0.0809 0.176882,-0.288 0.176882,-0.46019 0,-0.23547 0.376441,-0.67378 1.515213,-1.76496 1.111899,-1.06526 1.51525,-1.53234 1.51525,-1.75469 0,-0.21279 0.07106,-0.30312 0.238488,-0.30312 0.344315,0 0.764183,-0.39212 0.802092,-0.74906 0.0189,-0.16894 0.245669,-0.50222 0.506154,-0.74071 0.275905,-0.25247 0.473499,-0.55113 0.473499,-0.71505 0,-0.15458 0.113764,-0.38427 0.252473,-0.50997 0.138708,-0.12586 0.252472,-0.34394 0.252472,-0.48495 0,-0.14098 0.124346,-0.38873 0.276283,-0.55045 0.181796,-0.19352 0.27893,-0.46186 0.284221,-0.78414 0.0038,-0.28007 0.102425,-0.59471 0.228661,-0.73418 0.121701,-0.13417 0.221103,-0.35867 0.221103,-0.49867 0,-0.14022 0.113763,-0.35754 0.252472,-0.48313 0.138709,-0.12586 0.252473,-0.34394 0.252473,-0.48496 0,-0.14097 0.124346,-0.38872 0.276283,-0.55045 0.183307,-0.19502 0.278929,-0.46163 0.284221,-0.79105 0.0038,-0.27326 0.07899,-0.56803 0.165543,-0.6548 0.126236,-0.12624 0.157984,5.10009 0.157984,26.13143 v 26.28922 H 71.142914 c -11.056124,0 -20.048058,-0.0472 -19.982083,-0.10507 z"
     id="path2666" />
  <path
     style="fill:none;stroke:#000000;stroke-width:0.666191;stroke-linecap:butt;stroke-linejoin:miter;stroke-miterlimit:4;stroke-dasharray:none;stroke-opacity:1"
     d="m 316.52107,76.844033 11.41085,55.563747"
     id="path2711" />
  <path
     style="fill:#00ffb2;stroke:#000000;stroke-width:0.834675;stroke-linecap:butt;stroke-linejoin:miter;stroke-miterlimit:4;stroke-dasharray:none;stroke-opacity:1"
     d="m 49.472988,0 c 0,185.23907 0,185.23907 0,185.23907"
     id="path10" />
  <path
     style="fill:#000000;stroke:#000000;stroke-width:0.943158;stroke-linecap:butt;stroke-linejoin:miter;stroke-miterlimit:4;stroke-dasharray:none;stroke-opacity:1"
     d="m 49.472988,185.23907 330.813742,-0.0265 z"
     id="path12" />
  <path
     style="fill:none;stroke:#000000;stroke-width:0.944882;stroke-linecap:butt;stroke-linejoin:miter;stroke-miterlimit:4;stroke-dasharray:none;stroke-opacity:1"
     d="m 49.472988,185.23907 c 1.683587,-1.34687 3.455419,-2.5903 5.050761,-4.04061 0.372283,-0.33827 0.910564,-2.27641 1.010154,-2.52541 0.279648,-0.69906 0.673436,-1.34683 1.010151,-2.02031 0.168378,-0.33675 0.296239,-0.6969 0.505077,-1.01011 0.132057,-0.19805 0.373002,-0.3069 0.505073,-0.5051 0.208819,-0.31332 0.29624,-0.69691 0.505081,-1.01015 0.264152,-0.39621 0.673429,-0.67344 1.010151,-1.01016 0.841791,-0.84177 1.68359,-1.68359 2.525378,-2.52537 l 4.04061,-4.04061 c 0.265928,-0.2657 1.245483,-1.38036 1.515232,-1.51522 0.150576,-0.0752 0.386029,0.11906 0.50508,0 0.119056,-0.11905 -0.119055,-0.38604 0,-0.50509 0.119056,-0.11906 0.38603,0.11905 0.50507,0 0.119055,-0.11906 -0.09339,-0.3651 0,-0.5051 0.332674,-0.49901 1.962191,-1.96218 2.52539,-2.52536 0.168189,-0.16819 0.336756,-0.33676 0.505058,-0.50506 0.168567,-0.16857 0.398627,-0.29216 0.505096,-0.5051 0.07521,-0.15042 -0.07521,-0.35452 0,-0.50506 0.106583,-0.21316 0.398589,-0.29215 0.505058,-0.50509 0.07521,-0.15043 -0.07521,-0.35452 0,-0.50506 0.558388,-1.11678 0.313323,-0.15685 1.010155,-0.5051 1.116774,-0.55835 0.15685,-0.31332 0.505096,-1.01015 0.106582,-0.21279 0.336756,-0.33676 0.505058,-0.50506 0.168567,-0.16857 0.336756,-0.33676 0.505096,-0.5051 l 2.020309,-2.02031 c 0.168189,-0.16819 0.336756,-0.33675 0.505058,-0.50506 0.168189,-0.16819 0.398589,-0.29215 0.505058,-0.50509 0.07521,-0.15043 -0.07521,-0.35452 0,-0.50506 0.106583,-0.21279 0.398627,-0.29216 0.505096,-0.50506 0.07521,-0.1508 -0.07521,-0.35452 0,-0.5051 0.106583,-0.21316 0.398589,-0.29215 0.505096,-0.50505 0.07521,-0.15081 -0.07521,-0.35452 0,-0.5051 0.106583,-0.21279 0.398589,-0.29216 0.505059,-0.50506 0.07521,-0.1508 -0.119055,-0.38604 0,-0.50509 0.119055,-0.11906 0.386041,0.11905 0.505058,0 0.119055,-0.11906 -0.07521,-0.35452 0,-0.50506 0.106583,-0.21317 0.398589,-0.29216 0.505096,-0.5051 0.07521,-0.15042 -0.07521,-0.35452 0,-0.50506 0.106583,-0.21278 0.398589,-0.29215 0.505058,-0.50509 0.07521,-0.15043 -0.07521,-0.35452 0,-0.50506 0.213166,-0.42592 0.797216,-0.58424 1.010155,-1.01016 0.07521,-0.15042 -0.119055,-0.38604 0,-0.50509 0.119055,-0.11906 0.386041,0.11905 0.505096,0 0.119055,-0.11906 -0.07521,-0.35452 0,-0.50506 0.106582,-0.21317 0.398589,-0.29216 0.505058,-0.5051 0.07521,-0.15042 -0.07521,-0.35452 0,-0.50505 0.134929,-0.26986 1.249323,-1.24933 1.51525,-1.51522 0.266079,-0.26608 1.38036,-1.2455 1.515213,-1.51525 0.07521,-0.15042 -0.07521,-0.35452 0,-0.50506 1.051011,-2.10202 -0.03402,0.53995 1.010154,-0.50509 0.119056,-0.11906 -0.07521,-0.35452 0,-0.50506 0.212788,-0.42595 0.797178,-0.58424 1.010155,-1.01015 0.07521,-0.15081 -0.07521,-0.35452 0,-0.5051 0.106582,-0.21279 0.398589,-0.29216 0.505058,-0.50506 0.07521,-0.1508 -0.07521,-0.35452 0,-0.5051 0.106583,-0.21278 0.398627,-0.29215 0.505096,-0.50505 0.150425,-0.30123 -0.150425,-0.709 0,-1.01016 0.106583,-0.21279 0.398589,-0.29216 0.505096,-0.50506 0.07521,-0.1508 -0.07521,-0.35452 0,-0.50509 0.106583,-0.21279 0.398589,-0.29216 0.505058,-0.5051 0.07521,-0.15042 -0.07521,-0.35452 0,-0.50506 0.106583,-0.21316 0.398589,-0.29215 0.505059,-0.50509 0.150425,-0.30123 -0.150426,-0.70897 0,-1.01012 0.106582,-0.21279 0.398626,-0.29216 0.505096,-0.5051 0.07521,-0.15042 -0.07521,-0.35451 0,-0.50505 0.212787,-0.42592 0.797178,-0.58424 1.010154,-1.01016 0.07521,-0.1508 -0.07521,-0.35452 0,-0.50509 0.213165,-0.42592 0.746003,-0.61395 1.010154,-1.01016 0.774199,-1.1613 0.235843,-1.36403 1.010155,-2.52537 0.131905,-0.19804 0.398589,-0.29215 0.505058,-0.50509 0.07521,-0.15043 -0.05329,-0.34545 0,-0.50506 0.119055,-0.35716 0.336756,-0.67344 0.505096,-1.01015 0.168189,-0.33676 0.296315,-0.69691 0.505058,-1.01016 0.131906,-0.19805 0.398589,-0.29216 0.505096,-0.50506 0.07521,-0.1508 -0.07521,-0.35452 0,-0.50509 0.106583,-0.21317 0.398589,-0.29216 0.505059,-0.50506 0.150425,-0.30123 -0.150425,-0.709 0,-1.01019 0.106582,-0.21279 0.398589,-0.29216 0.505096,-0.50506 0.150425,-0.30123 -0.150425,-0.709 0,-1.01016 0.106582,-0.21278 0.398589,-0.29215 0.505058,-0.50505 0.07521,-0.15081 0,-0.33676 0,-0.5051 v -0.5051 -3.03042 -0.5051 c 0,-0.16819 -0.07521,-0.35452 0,-0.50506 0.106583,-0.21278 0.398589,-0.29215 0.505058,-0.50509 0.201827,-0.40407 -0.201826,-1.11118 0,-1.51521 0.106583,-0.21317 0.398627,-0.29216 0.505096,-0.5051 0.158741,-0.31748 -0.15874,-1.70283 0,-2.02031 0.106583,-0.21279 0.398589,-0.29216 0.505096,-0.50506 0.159497,-0.31861 -0.159118,-2.20675 0,-2.5254 0.106583,-0.21279 0.398589,-0.29216 0.505059,-0.50506 0.150425,-0.30123 -0.150425,-0.709 0,-1.01015 0.106582,-0.21317 0.398589,-0.29216 0.505058,-0.50506 0.100154,-0.20032 -0.103181,-1.412 0,-1.51525 0.119054,-0.11906 0.386044,0.11905 0.505094,0 0.23811,-0.23811 -0.23811,-0.77205 0,-1.01016 0.11906,-0.11905 0.386,0.11906 0.50506,0 0.23811,-0.23811 -0.23811,-0.77204 0,-1.01015 0.11905,-0.11906 0.38604,0.11905 0.5051,0 0.23811,-0.23811 -0.15043,-0.708965 0,-1.010156 0.10658,-0.213165 0.39858,-0.292157 0.50505,-0.505058 0.0752,-0.150425 0,-0.336756 0,-0.505096 0.33676,-0.336756 0.74601,-0.613909 1.01016,-1.010117 0.0934,-0.14022 -0.0752,-0.354519 0,-0.505096 0.10658,-0.212787 0.39859,-0.292157 0.50509,-0.505096 0.0752,-0.150425 -0.11905,-0.386003 0,-0.505058 0.23811,-0.23811 0.77205,0.23811 1.01016,0 0.11905,-0.119055 -0.0752,-0.35452 0,-0.505058 0.10658,-0.212788 0.33675,-0.336756 0.50506,-0.505096 0.16819,-0.168189 0.29215,-0.398589 0.50509,-0.505059 0.15043,-0.07521 0.38601,0.119056 0.50506,0 0.11906,-0.119055 -0.0752,-0.354519 0,-0.505096 0.10658,-0.213165 0.39859,-0.292157 0.5051,-0.505058 0.0752,-0.150425 -0.11906,-0.386041 0,-0.505096 0.11905,-0.119055 0.386,0.119055 0.50506,0 0.11905,-0.119055 -0.0752,-0.35452 0,-0.505058 0.21316,-0.425953 0.79721,-0.58424 1.01015,-1.010155 0.0752,-0.150425 -0.0752,-0.354519 0,-0.505096 0.10658,-0.212787 0.39859,-0.292157 0.5051,-0.505058 0.0752,-0.150425 -0.0752,-0.35452 0,-0.505096 0.10658,-0.212787 0.39859,-0.292158 0.50505,-0.505058 0.0752,-0.150426 -0.0752,-0.35452 0,-0.505096 0.10659,-0.213166 0.39859,-0.292158 0.5051,-0.505059 0.0752,-0.150425 -0.11905,-0.386041 0,-0.505096 0.11906,-0.119055 0.386,0.119055 0.50506,0 1.04504,-1.045001 -1.59693,0.04082 0.50506,-1.010154 0.69668,-0.348473 0.4518,0.611679 1.01015,-0.505058 0.0752,-0.150426 -0.0752,-0.35452 0,-0.505096 0.10658,-0.213166 0.39863,-0.292158 0.5051,-0.505059 0.0752,-0.150425 -0.0752,-0.354519 0,-0.505058 0.21279,-0.425953 0.79718,-0.584239 1.01015,-1.010154 0.15043,-0.301229 -0.23811,-0.772082 0,-1.010155 0.11906,-0.119055 0.38601,0.119055 0.50506,0 0.23811,-0.23811 -0.23811,-0.772082 0,-1.010154 0.11906,-0.119055 0.38604,0.119055 0.5051,0 0.11905,-0.119055 -0.0752,-0.35452 0,-0.505096 0.21316,-0.425915 0.79717,-0.584239 1.01015,-1.010154 0.15043,-0.301229 -0.15042,-0.708964 0,-1.010155 0.21317,-0.425915 0.79718,-0.584239 1.01016,-1.010154 0.0752,-0.150425 -0.0752,-0.35452 0,-0.505058 0.21278,-0.425915 0.79717,-0.58424 1.01015,-1.010155 0.15042,-0.301228 -0.15043,-0.709001 0,-1.010154 1.05101,-2.102022 -0.034,0.539943 1.01012,-0.505096 0.11905,-0.119055 -0.0752,-0.35452 0,-0.505058 0.21316,-0.425915 0.79721,-0.58424 1.01019,-1.010155 0.0752,-0.150425 -0.0752,-0.354519 0,-0.505096 0.10658,-0.212787 0.39859,-0.292157 0.50506,-0.505058 0.0752,-0.150425 -0.0752,-0.35452 0,-0.505058 0.11678,-0.233953 1.72323,-1.723276 2.0203,-2.020309 0.16819,-0.168567 0.39859,-0.292157 0.50506,-0.505096 0.0752,-0.150425 -0.0752,-0.35452 0,-0.505058 0.21317,-0.425915 0.79722,-0.58424 1.01016,-1.010155 0.0752,-0.150425 -0.0752,-0.354519 0,-0.505096 0.30312,-0.606085 1.21221,-0.909127 1.51525,-1.515212 0.0752,-0.150426 -0.0752,-0.35452 0,-0.505096 0.21279,-0.425915 0.79718,-0.584202 1.01015,-1.010117 0.0752,-0.150425 -0.0752,-0.35452 0,-0.505096 0.10659,-0.213165 0.39859,-0.292158 0.50506,-0.505096 0.0752,-0.150425 -0.0752,-0.35452 0,-0.505058 0.24869,-0.497008 1.77181,-1.523301 2.02031,-2.020309 0.0752,-0.150425 -0.0752,-0.35452 0,-0.505058 0.16101,-0.321638 2.12852,-2.128517 2.52537,-2.525405 1.68359,-1.683591 3.36718,-3.367181 5.05077,-5.050772 0.29707,-0.297071 1.90337,-1.786394 2.02031,-2.020271 0.0752,-0.150425 -0.0752,-0.354519 0,-0.505096 0.21278,-0.425915 0.79717,-0.584239 1.01015,-1.010154 0.0752,-0.150425 -0.0752,-0.35452 0,-0.505058 0.10658,-0.213166 0.39859,-0.292158 0.5051,-0.505097 0.0752,-0.150425 -0.0752,-0.354519 0,-0.505058 0.21278,-0.425915 0.79718,-0.584239 1.01015,-1.010154 0.0752,-0.150425 -0.0752,-0.35452 0,-0.505096 0.10659,-0.212788 0.39859,-0.292158 0.50506,-0.505058 0.15043,-0.301229 -0.23811,-0.772045 0,-1.010155 0.11906,-0.119055 0.35452,0.07521 0.50506,0 0.49701,-0.248693 1.5233,-1.771804 2.02031,-2.020308 0.15042,-0.07521 0.38604,0.119055 0.5051,0 0.11905,-0.119056 -0.0752,-0.35452 0,-0.505097 0.0673,-0.134173 1.38111,-1.448163 1.51521,-1.515212 0.15042,-0.07521 0.38604,0.119055 0.50509,0 0.11906,-0.119055 -0.0752,-0.35452 0,-0.505058 0.55839,-1.116775 0.31333,-0.156851 1.01016,-0.505096 0.21279,-0.106583 0.33675,-0.336756 0.50506,-0.505059 0.29707,-0.297071 1.78643,-1.90337 2.02031,-2.020308 0.15042,-0.07521 0.35451,0.07521 0.50509,0 0.21279,-0.106583 0.33676,-0.336756 0.50506,-0.505096 0.39689,-0.396851 2.20365,-2.364511 2.5254,-2.525367 0.15043,-0.07521 0.35452,0.07521 0.50506,0 0.26986,-0.13493 1.24933,-1.249323 1.51522,-1.515251 1.01015,-1.010116 2.0203,-2.020271 3.03046,-3.030463 0.16857,-0.168189 0.29216,-0.398589 0.50509,-0.505058 0.69668,-0.348473 0.45177,0.611679 1.01016,-0.505058 0.0752,-0.150426 -0.11906,-0.386041 0,-0.505096 1.045,-1.045002 -0.0408,1.596926 1.01015,-0.505059 0.0752,-0.150425 -0.11905,-0.386041 0,-0.505096 0.11906,-0.119055 0.35452,0.07521 0.50506,0 0.49701,-0.248315 1.5233,-1.771805 2.02031,-2.020309 0.15043,-0.07521 0.35452,0.07521 0.50506,0 0.21316,-0.106582 0.29216,-0.398588 0.50509,-0.505058 0.15043,-0.07521 0.38601,0.119055 0.50506,0 0.11906,-0.119055 -0.11905,-0.386041 0,-0.505096 0.11906,-0.119055 0.35452,0.07521 0.5051,0 0.21279,-0.106583 0.33675,-0.336756 0.50506,-0.505058 0.16819,-0.168567 0.39862,-0.292158 0.50509,-0.505096 0.0752,-0.150425 -0.11905,-0.386003 0,-0.505058 0.23811,-0.238111 0.77205,0.23811 1.01016,0 0.11905,-0.119056 -0.11906,-0.386041 0,-0.505097 0.23811,-0.23811 0.70896,0.150426 1.01015,0 0.21279,-0.106582 0.33676,-0.336755 0.50506,-0.505058 0.16819,-0.168189 0.39859,-0.292157 0.5051,-0.505058 0.0752,-0.150425 -0.11906,-0.386041 0,-0.505096 0.11905,-0.119055 0.35452,0.07521 0.50505,0 0.21279,-0.106583 0.3069,-0.37304 0.5051,-0.505058 0.31332,-0.209008 0.74392,-0.238867 1.01012,-0.505096 0.11905,-0.119056 -0.11906,-0.386041 0,-0.505059 0.11905,-0.119055 0.35452,0.07521 0.50509,0 0.42592,-0.213165 0.58424,-0.797216 1.01016,-1.010154 0.30123,-0.150425 0.709,0.150425 1.01015,0 0.21279,-0.106583 0.29216,-0.398627 0.50506,-0.505096 0.30123,-0.150425 0.77208,0.23811 1.01015,0 0.11906,-0.119055 -0.11905,-0.386003 0,-0.505058 0.10319,-0.103182 1.31498,0.100157 1.51525,0 0.21317,-0.106583 0.29216,-0.398627 0.50506,-0.505097 0.30652,-0.153448 2.72376,0.153449 3.03047,0 0.21316,-0.106582 0.29215,-0.398589 0.50509,-0.505058 0.15043,-0.07521 0.33676,0 0.50506,0 0.35792,0 2.89988,0.06539 3.03046,0 0.21317,-0.106582 0.29216,-0.398589 0.50506,-0.505096 0.40407,-0.201827 1.11118,0.201827 1.51525,0 0.21279,-0.106583 0.29216,-0.398589 0.50506,-0.505058 0.15383,-0.07673 1.28776,0 1.51525,0 h 3.53552 c 0.3515,0 2.34274,-0.09146 2.52537,0 0.21279,0.106583 0.29216,0.398589 0.50509,0.505058 0.30123,0.150425 0.70901,-0.150425 1.01016,0 0.21279,0.106583 0.29216,0.398627 0.5051,0.505096 0.15042,0.07521 0.35452,-0.07521 0.50505,0 0.21279,0.106583 0.29216,0.398589 0.5051,0.505058 0.15042,0.07521 0.35452,-0.07521 0.50506,0 0.42591,0.212788 0.58424,0.797216 1.01015,1.010155 0.15043,0.07521 0.35452,-0.07521 0.5051,0 0.21316,0.106582 0.29216,0.398589 0.50506,0.505096 0.15042,0.07521 0.35452,-0.07521 0.50509,0 0.42592,0.213165 0.5842,0.797178 1.01016,1.010154 0.15042,0.07521 0.35452,-0.07521 0.50506,0 0.21278,0.106583 0.29215,0.398589 0.50505,0.505059 0.15043,0.07521 0.35452,-0.07521 0.5051,0 0.42591,0.212787 0.58424,0.797177 1.01015,1.010154 0.15043,0.07521 0.35452,-0.07521 0.50506,0 0.49705,0.248693 1.5233,1.771805 2.02031,2.020309 0.15043,0.07521 0.35452,-0.07521 0.5051,0 0.42591,0.212787 0.58424,0.797177 1.01015,1.010154 0.15043,0.07521 0.35452,-0.07521 0.50506,0 0.21279,0.106583 0.33676,0.336756 0.5051,0.505058 0.16818,0.168189 0.33675,0.336756 0.50505,0.505096 l 2.02031,2.020309 4.04062,4.040617 c 0.29707,0.297071 1.78639,1.903333 2.02031,2.020271 0.15042,0.07521 0.35452,-0.07521 0.50506,0 0.21316,0.106583 0.33675,0.336756 0.50509,0.505096 0.16819,0.168567 0.33676,0.336756 0.50506,0.505058 l 2.02031,2.020309 c 0.16819,0.168189 0.29216,0.398627 0.5051,0.505096 0.15042,0.07521 0.35452,-0.07521 0.50505,0 0.21279,0.106583 0.29216,0.398589 0.50506,0.505059 0.15043,0.07521 0.35452,-0.07521 0.5051,0 0.60608,0.303118 0.90913,1.212207 1.51525,1.51525 0.15042,0.07521 0.35452,-0.07521 0.50506,0 0.23395,0.116787 1.72324,1.723238 2.02031,2.020309 l 2.0203,2.02027 c 0.16819,0.168567 0.33676,0.336756 0.50506,0.505097 0.16819,0.168189 0.39859,0.292157 0.5051,0.505058 0.0752,0.150425 -0.0752,0.35452 0,0.505096 0.24831,0.497008 1.7718,1.523301 2.02031,2.020309 0.0752,0.150425 -0.0752,0.354519 0,0.505058 0.21279,0.425915 0.79718,0.584239 1.01015,1.010154 0.0752,0.150425 -0.0752,0.35452 0,0.505096 0.21279,0.425915 0.79718,0.58424 1.01016,1.010155 0.0752,0.150425 -0.0752,0.354519 0,0.505058 0.10658,0.212787 0.39859,0.292157 0.50505,0.505096 0.0752,0.150425 -0.0752,0.35452 0,0.505058 0.21279,0.425915 0.79718,0.58424 1.01016,1.010155 0.0752,0.150425 -0.0752,0.354519 0,0.505096 0.10658,0.213165 0.39859,0.292157 0.50506,0.505058 0.0752,0.150425 -0.11906,0.386041 0,0.505058 0.11905,0.119055 0.38604,-0.119055 0.50509,0 0.11906,0.119055 -0.0752,0.35452 0,0.505096 0.21279,0.425915 0.79718,0.58424 1.01016,1.010155 0.15042,0.301228 -0.15043,0.709001 0,1.010154 0.21279,0.425915 0.79718,0.584239 1.01015,1.010154 0.15043,0.301229 -0.15042,0.708964 0,1.010155 0.10658,0.212787 0.39859,0.292157 0.50506,0.505058 0.0752,0.150425 -0.0752,0.35452 0,0.505096 0.10658,0.212787 0.33676,0.336756 0.5051,0.505058 0.29707,0.297071 1.90337,1.786432 2.02031,2.020309 0.15042,0.301228 -0.15043,0.709001 0,1.010154 0.10658,0.213166 0.39858,0.292158 0.50505,0.505096 0.0752,0.150425 -0.0752,0.35452 0,0.505059 0.10659,0.213165 0.39859,0.292157 0.5051,0.505058 0.0752,0.150425 -0.0752,0.35452 0,0.505096 0.30312,0.606085 1.21217,0.909127 1.51521,1.515213 0.74317,1.486374 -1.17006,-0.664971 0.5051,1.010154 0.16819,0.168189 0.33675,0.336756 0.50506,0.505096 0.16819,0.168567 0.39859,0.292157 0.50505,0.505058 0.15043,0.301229 -0.15042,0.709002 0,1.010155 0.21279,0.425915 0.79722,0.584239 1.01016,1.010154 0.15042,0.301228 -0.15043,0.709002 0,1.010154 0.10658,0.212788 0.39863,0.292158 0.5051,0.505096 0.0752,0.150426 -0.0752,0.35452 0,0.505059 0.10658,0.212787 0.39858,0.292157 0.50505,0.505096 0.15043,0.301228 -0.15042,0.708963 0,1.010116 0.10659,0.212788 0.39859,0.292158 0.5051,0.505096 0.15042,0.301229 -0.23811,0.772044 0,1.010155 0.11905,0.119055 0.386,-0.119055 0.50506,0 0.23811,0.23811 -0.15043,0.709001 0,1.010154 0.10658,0.212787 0.39862,0.292157 0.50509,0.505058 0.0752,0.150425 -0.0752,0.35452 0,0.505096 0.10659,0.213166 0.39859,0.292158 0.50506,0.505059 0.15043,0.301228 -0.15042,0.709001 0,1.010154 0.21279,0.425915 0.79722,0.584239 1.01016,1.010154 0.0752,0.150425 -0.0752,0.35452 0,0.505096 0.21316,0.425915 0.79721,0.58424 1.01015,1.010155 0.0752,0.150425 -0.11905,0.386003 0,0.505058 0.11906,0.119055 0.38604,-0.119055 0.5051,0 0.11905,0.119055 -0.0752,0.35452 0,0.505096 0.10658,0.213165 0.39859,0.292158 0.50506,0.505058 0.0752,0.150425 -0.0752,0.35452 0,0.505096 0.10658,0.212788 0.39858,0.292158 0.50509,0.505059 0.0752,0.150425 -0.0752,0.354519 0,0.505096 0.10658,0.212787 0.39859,0.292157 0.50506,0.505058 0.0752,0.150425 -0.0752,0.35452 0,0.505096 0.10658,0.212787 0.39859,0.292158 0.5051,0.505058 0.15042,0.301229 -0.15043,0.709002 0,1.010155 0.21278,0.425915 0.79717,0.584239 1.01011,1.010154 0.0752,0.150425 -0.0752,0.35452 0,0.505058 0.10658,0.212788 0.39863,0.292158 0.5051,0.505096 0.15042,0.301229 -0.15043,0.708964 0,1.010155 0.10658,0.212787 0.39859,0.292157 0.50506,0.505058 0.0752,0.150425 -0.0752,0.35452 0,0.505096 0.10658,0.212787 0.39862,0.292158 0.50509,0.505058 0.0752,0.150426 -0.0752,0.35452 0,0.505096 0.10659,0.213166 0.39859,0.292158 0.5051,0.505059 0.0752,0.150425 -0.0752,0.354519 0,0.505096 0.10658,0.213165 0.39859,0.292157 0.50506,0.505058 0.0752,0.150425 -0.0752,0.35452 0,0.505096 0.21278,0.425915 0.79717,0.584202 1.01015,1.010154 0.0752,0.150426 -0.0752,0.35452 0,0.505059 0.21317,0.425915 0.79718,0.584239 1.01016,1.010154 0.0752,0.150425 -0.0752,0.35452 0,0.505058 0.10658,0.212788 0.39858,0.292158 0.50505,0.505096 0.0752,0.150426 -0.0752,0.35452 0,0.505096 0.10659,0.212788 0.39859,0.292158 0.5051,0.505059 0.15043,0.301228 -0.15043,0.708963 0,1.010154 0.10658,0.213165 0.39859,0.292158 0.50506,0.505058 0.0752,0.150426 -0.0752,0.35452 0,0.505096 0.10658,0.21279 0.39859,0.29216 0.50509,0.50506 0.0752,0.15042 -0.0752,0.35452 0,0.50509 0.21279,0.42592 0.79718,0.58424 1.01016,1.01016 0.0752,0.15042 -0.0752,0.35452 0,0.50506 0.24869,0.497 1.7718,1.5233 2.02031,2.02031 0.0752,0.15042 -0.0752,0.35452 0,0.50509 0.21278,0.42592 0.746,0.61391 1.01011,1.01012 0.20901,0.31332 0.29632,0.69694 0.5051,1.01015 0.13191,0.19805 0.33676,0.33676 0.5051,0.5051 0.50505,0.50509 1.01011,1.01015 1.51521,1.51521 0.16857,0.16819 0.39859,0.29216 0.50506,0.5051 0.0752,0.15042 -0.0752,0.35452 0,0.50506 0.11678,0.23395 1.72327,1.72323 2.02031,2.0203 0.16818,0.16819 0.39858,0.29216 0.50509,0.5051 0.0752,0.15043 -0.0752,0.35452 0,0.50506 0.10658,0.21279 0.39859,0.29216 0.50506,0.50509 0.0752,0.15043 -0.0752,0.35452 0,0.50506 0.55839,1.11674 0.31332,0.15685 1.01015,0.5051 0.21279,0.10658 0.29216,0.39859 0.5051,0.50506 0.15043,0.0752 0.35452,-0.0752 0.50506,0 0.21316,0.10658 0.33675,0.33675 0.50509,0.50506 0.16819,0.16818 0.33676,0.33675 0.50506,0.50509 l 2.02031,2.02031 0.5051,0.5051 c 0.16819,0.16819 0.29216,0.39859 0.50506,0.50505 0.15042,0.0752 0.35452,-0.0752 0.50505,0 0.60613,0.30312 0.90917,1.21221 1.51525,1.51522 0.15043,0.0752 0.34545,-0.0533 0.50506,0 3.65847,1.2195 -0.79631,-0.14551 1.51525,1.01019 0.15043,0.0752 0.35452,-0.0752 0.50506,0 0.42592,0.21279 0.58424,0.79718 1.01016,1.01015 0.15042,0.0752 0.35452,-0.0752 0.50509,0 0.21279,0.10659 0.29216,0.39859 0.50506,0.50506 0.15043,0.0752 0.35452,-0.0752 0.5051,0 0.21316,0.10658 0.29215,0.39859 0.50505,0.50506 0.15043,0.0752 0.35452,-0.0752 0.50506,0 0.21279,0.10658 0.29216,0.39863 0.5051,0.5051 0.30123,0.15042 0.70896,-0.15043 1.01015,0 0.21279,0.10658 0.29216,0.39859 0.5051,0.50505 0.30123,0.15081 0.70896,-0.15042 1.01012,0 0.21316,0.10659 0.29215,0.39863 0.50509,0.5051 0.40407,0.20183 1.11118,-0.2022 1.51521,0 0.21279,0.10658 0.29216,0.39859 0.5051,0.50506 0.30123,0.1508 0.70896,-0.15043 1.01015,0 0.42592,0.21279 0.58424,0.79721 1.01016,1.01015 0.31748,0.15874 1.70283,-0.15874 2.02031,0 0.21279,0.10659 0.29216,0.39863 0.50506,0.5051 0.30122,0.15042 0.709,-0.15043 1.01015,0 0.21317,0.10658 0.29216,0.39859 0.5051,0.50506 0.20031,0.10016 1.41195,-0.10318 1.51521,0 0.11905,0.11905 -0.11906,0.38604 0,0.50509 0.11905,0.11906 0.33676,0 0.50506,0 0.35149,0 2.34274,-0.0915 2.5254,0 0.21317,0.10659 0.29216,0.39859 0.50506,0.50506 0.40407,0.20221 1.11118,-0.20182 1.51525,0 0.21279,0.10658 0.29216,0.39859 0.50506,0.5051 0.40407,0.2022 1.11118,-0.20221 1.51521,0 0.21317,0.10658 0.29216,0.39859 0.5051,0.50506 0.31748,0.15874 1.70286,-0.15874 2.02031,0 0.21278,0.10658 0.29215,0.39859 0.50505,0.50509 0.20032,0.10016 1.412,-0.10318 1.51526,0 0.11905,0.11906 -0.11906,0.38601 0,0.50506 0.11905,0.11906 0.33675,0 0.50505,0 h 4.04062 3.53552 c 0.22753,0 1.36154,-0.0771 1.51525,0 0.21279,0.10658 0.29216,0.39859 0.5051,0.5051 0.30123,0.15042 0.70896,-0.15081 1.01012,0 0.21278,0.10658 0.29215,0.39859 0.50509,0.50505 0.40407,0.20183 1.11114,-0.20182 1.51521,0 0.21279,0.10659 0.29216,0.39859 0.5051,0.5051 0.31861,0.1595 2.20671,-0.1595 2.52537,0 0.21316,0.10658 0.29215,0.39859 0.50509,0.50506 0.34885,0.17461 2.34807,-0.17726 2.52537,0 0.11906,0.11905 -0.11906,0.38604 0,0.50506 0.11906,0.11905 0.35452,-0.0752 0.5051,0 0.21278,0.10658 0.29215,0.39862 0.50505,0.50509 0.30123,0.15043 0.70901,-0.15042 1.01016,0 0.21316,0.10659 0.29216,0.39859 0.50506,0.50506 0.30123,0.15081 0.709,-0.15042 1.01015,0 0.21279,0.10658 0.29216,0.39863 0.5051,0.5051 0.15042,0.0752 0.35452,-0.0752 0.50506,0 0.21278,0.10658 0.29215,0.39859 0.50509,0.50509 0.40407,0.20183 1.11118,-0.2022 1.51525,0 0.21279,0.10659 0.29216,0.39859 0.50506,0.50506 0.30123,0.15043 0.709,-0.15042 1.01015,0 0.21279,0.10658 0.29216,0.39859 0.5051,0.50506 0.30123,0.15043 0.70896,-0.15042 1.01016,0 0.21278,0.10658 0.30689,0.37304 0.50505,0.5051 0.31333,0.209 0.67344,0.33675 1.01016,0.50505 0.33675,0.16857 0.64101,0.43125 1.01015,0.5051 0.49527,0.099 1.01995,-0.099 1.51521,0 0.36926,0.0737 0.66063,0.3651 1.01016,0.50506 0.49432,0.19767 1.01015,0.33676 1.51525,0.5051 0.50506,0.16818 0.99315,0.40066 1.51521,0.50505 0.33033,0.0661 0.68349,-0.0816 1.01016,0 0.73043,0.18255 1.30601,0.77205 2.02031,1.01016 0.31937,0.10658 0.70896,-0.15043 1.01015,0 0.21279,0.10658 0.29216,0.39859 0.5051,0.5051 0.30122,0.15042 0.70896,-0.15043 1.01011,0 0.21279,0.10658 0.29216,0.39858 0.5051,0.50505 0.40407,0.20183 1.11114,-0.20182 1.51521,0 0.21279,0.10658 0.29216,0.39859 0.5051,0.5051 0.30123,0.15042 0.70896,-0.1508 1.01015,0 0.21279,0.10658 0.29216,0.39859 0.50506,0.50506 0.30123,0.15042 0.77208,-0.23811 1.01015,0 0.11906,0.11905 -0.11905,0.38604 0,0.50509 0.13833,0.13833 1.74633,-0.13682 2.02031,0 0.21279,0.10659 0.29216,0.39859 0.50506,0.50506 0.40407,0.20183 1.11118,-0.20182 1.51525,0 0.21279,0.10658 0.29216,0.39859 0.50506,0.50506 0.1508,0.0752 0.35452,-0.0752 0.5051,0 0.21278,0.10658 0.29215,0.39863 0.50505,0.5051 0.15043,0.0752 0.35452,-0.0752 0.5051,0 0.21279,0.10658 0.29216,0.39859 0.50506,0.50505 0.1508,0.0752 0.35452,-0.0752 0.50509,0 0.42592,0.21279 0.58424,0.79722 1.01016,1.01016 0.30123,0.1508 0.70896,-0.15043 1.01015,0 0.21279,0.10658 0.29216,0.39859 0.50506,0.5051 0.30123,0.15042 0.709,-0.15043 1.01016,0 0.21316,0.10658 0.29215,0.39858 0.50509,0.50505 0.31862,0.1595 2.20672,-0.15911 2.52537,0 0.21279,0.10659 0.29216,0.39863 0.50509,0.5051 0.40404,0.20183 1.11115,-0.20183 1.51522,0 0.21278,0.10658 0.29215,0.39859 0.50506,0.50506 0.18255,0.0915 2.17409,0 2.5254,0 0.16819,0 0.386,-0.11906 0.50506,0 0.11905,0.11905 -0.11906,0.38604 0,0.50509 0.25247,0.25248 1.2627,-0.25247 1.51525,0 0.11905,0.11906 -0.11906,0.38604 0,0.50506 0.0151,0.0151 0.91831,0.0423 1.04081,0.0423"
     id="path16" />
  <text
     xml:space="preserve"
     style="font-style:normal;font-weight:normal;font-size:16px;line-height:1.25;font-family:sans-serif;letter-spacing:0px;word-spacing:0px;fill:#000000;fill-opacity:1;stroke:none;stroke-width:0.999999"
     x="169.01566"
     y="205.27696"
     id="text2687"><tspan
       id="tspan2685"
       x="169.01566"
       y="205.27696"
       style="font-style:normal;font-variant:normal;font-weight:normal;font-stretch:normal;font-size:16px;font-family:sans-serif;-inkscape-font-specification:'sans-serif, Normal';font-variant-ligatures:normal;font-variant-caps:normal;font-variant-numeric:normal;font-feature-settings:normal;text-align:start;writing-mode:lr-tb;text-anchor:start;stroke-width:0.999999">Complexity</tspan></text>
  <text
     xml:space="preserve"
     style="font-style:normal;font-weight:normal;font-size:16px;line-height:1.25;font-family:sans-serif;letter-spacing:0px;word-spacing:0px;fill:#000000;fill-opacity:1;stroke:none;stroke-width:0.999999"
     x="-0.125"
     y="96.647316"
     id="text2687-9"><tspan
       id="tspan2685-8"
       x="-0.125"
       y="96.647316"
       style="font-style:normal;font-variant:normal;font-weight:normal;font-stretch:normal;font-size:16px;font-family:sans-serif;-inkscape-font-specification:'sans-serif, Normal';font-variant-ligatures:normal;font-variant-caps:normal;font-variant-numeric:normal;font-feature-settings:normal;text-align:start;writing-mode:lr-tb;text-anchor:start;stroke-width:0.999999">Value</tspan></text>
  <text
     xml:space="preserve"
     style="font-style:normal;font-weight:normal;font-size:39.9999px;line-height:0;font-family:sans-serif;letter-spacing:0px;word-spacing:0px;fill:#000000;fill-opacity:1;stroke:none;stroke-width:0.999999"
     x="274.11737"
     y="8.92134"
     id="text2687-8"><tspan
       x="274.11737"
       y="8.92134"
       style="font-style:normal;font-variant:normal;font-weight:normal;font-stretch:normal;font-size:16px;line-height:0.95;font-family:sans-serif;-inkscape-font-specification:'sans-serif, Normal';font-variant-ligatures:normal;font-variant-caps:normal;font-variant-numeric:normal;font-feature-settings:normal;text-align:start;writing-mode:lr-tb;text-anchor:start;stroke-width:0.999999"
       id="tspan2739" /><tspan
       x="274.11737"
       y="25.721338"
       style="font-style:normal;font-variant:normal;font-weight:normal;font-stretch:normal;font-size:16px;line-height:1.15;font-family:sans-serif;-inkscape-font-specification:'sans-serif, Normal';font-variant-ligatures:normal;font-variant-caps:normal;font-variant-numeric:normal;font-feature-settings:normal;text-align:start;writing-mode:lr-tb;text-anchor:start;stroke-width:0.999999"
       id="tspan2760"><tspan
         style="font-size:13.3333px;stroke-width:0.999999"
         id="tspan2779">S</tspan><tspan
         style="font-size:13.3333px;stroke-width:0.999999"
         id="tspan2777">oftware</tspan></tspan><tspan
       x="274.11737"
       y="41.895267"
       style="font-style:normal;font-variant:normal;font-weight:normal;font-stretch:normal;font-size:13.3333px;line-height:1.15;font-family:sans-serif;-inkscape-font-specification:'sans-serif, Normal';font-variant-ligatures:normal;font-variant-caps:normal;font-variant-numeric:normal;font-feature-settings:normal;text-align:start;writing-mode:lr-tb;text-anchor:start;stroke-width:0.999999"
       id="tspan847">not designed </tspan><tspan
       x="274.11737"
       y="57.228565"
       style="font-style:normal;font-variant:normal;font-weight:normal;font-stretch:normal;font-size:13.3333px;line-height:1.15;font-family:sans-serif;-inkscape-font-specification:'sans-serif, Normal';font-variant-ligatures:normal;font-variant-caps:normal;font-variant-numeric:normal;font-feature-settings:normal;text-align:start;writing-mode:lr-tb;text-anchor:start;stroke-width:0.999999"
       id="tspan849">for personal </tspan><tspan
       x="274.11737"
       y="72.561859"
       style="font-style:normal;font-variant:normal;font-weight:normal;font-stretch:normal;font-size:13.3333px;line-height:1.15;font-family:sans-serif;-inkscape-font-specification:'sans-serif, Normal';font-variant-ligatures:normal;font-variant-caps:normal;font-variant-numeric:normal;font-feature-settings:normal;text-align:start;writing-mode:lr-tb;text-anchor:start;stroke-width:0.999999"
       id="tspan851">task management</tspan></text>
  <text
     xml:space="preserve"
     style="font-style:normal;font-weight:normal;font-size:13.3333px;line-height:0;font-family:sans-serif;letter-spacing:0px;word-spacing:0px;fill:#000000;fill-opacity:1;stroke:none;stroke-width:0.999999"
     x="114.78482"
     y="146.04669"
     id="text2687-8-9"><tspan
       x="114.78482"
       y="146.04669"
       style="font-style:normal;font-variant:normal;font-weight:normal;font-stretch:normal;font-size:13.3333px;line-height:0.95;font-family:sans-serif;-inkscape-font-specification:'sans-serif, Normal';font-variant-ligatures:normal;font-variant-caps:normal;font-variant-numeric:normal;font-feature-settings:normal;text-align:start;writing-mode:lr-tb;text-anchor:start;stroke-width:0.999999"
       id="tspan2760-3">Analog </tspan><tspan
       x="114.78482"
       y="158.71332"
       style="font-style:normal;font-variant:normal;font-weight:normal;font-stretch:normal;font-size:13.3333px;line-height:0.95;font-family:sans-serif;-inkscape-font-specification:'sans-serif, Normal';font-variant-ligatures:normal;font-variant-caps:normal;font-variant-numeric:normal;font-feature-settings:normal;text-align:start;writing-mode:lr-tb;text-anchor:start;stroke-width:0.999999"
       id="tspan2792">Notebook</tspan></text>
  <path
     style="fill:none;stroke:#000000;stroke-width:0.780079;stroke-linecap:butt;stroke-linejoin:miter;stroke-miterlimit:4;stroke-dasharray:none;stroke-opacity:1"
     d="M 110.2679,154.42617 91.461692,166.2231"
     id="path2711-2" />
  <path
     style="fill:none;stroke:#000000;stroke-width:0.998124px;stroke-linecap:butt;stroke-linejoin:miter;stroke-opacity:1"
     d="m 311.48886,130.45187 v 55.06904 z"
     id="path2832" />
  <path
     style="fill:none;stroke:#000000;stroke-width:0.999999px;stroke-linecap:butt;stroke-linejoin:miter;stroke-opacity:1"
     d="m 379.8474,149.09859 -0.0419,36.29673 z"
     id="path3568" />
</svg>
