<?xml version="1.0" encoding="UTF-8" standalone="no"?>
<!-- Created with Inkscape (http://www.inkscape.org/) -->

<svg
   xmlns:dc="http://purl.org/dc/elements/1.1/"
   xmlns:cc="http://creativecommons.org/ns#"
   xmlns:rdf="http://www.w3.org/1999/02/22-rdf-syntax-ns#"
   xmlns:svg="http://www.w3.org/2000/svg"
   xmlns="http://www.w3.org/2000/svg"
   xmlns:sodipodi="http://sodipodi.sourceforge.net/DTD/sodipodi-0.dtd"
   xmlns:inkscape="http://www.inkscape.org/namespaces/inkscape"
   version="1.1"
   id="svg834"
   xml:space="preserve"
   width="116.75115"
   height="116.49361"
   viewBox="0 0 116.75115 116.49361"
   sodipodi:docname="sieker_short.svg"
   inkscape:version="0.92.5 (2060ec1f9f, 2020-04-08)"><metadata
     id="metadata840"><rdf:RDF><cc:Work
         rdf:about=""><dc:format>image/svg+xml</dc:format><dc:type
           rdf:resource="http://purl.org/dc/dcmitype/StillImage" /><dc:title></dc:title></cc:Work></rdf:RDF></metadata><defs
     id="defs838" /><sodipodi:namedview
     pagecolor="#ffffff"
     bordercolor="#666666"
     borderopacity="1"
     objecttolerance="10"
     gridtolerance="10"
     guidetolerance="10"
     inkscape:pageopacity="0"
     inkscape:pageshadow="2"
     inkscape:window-width="1920"
     inkscape:window-height="973"
     id="namedview836"
     showgrid="false"
     inkscape:zoom="2.3126392"
     inkscape:cx="-79.068021"
     inkscape:cy="40.159042"
     inkscape:window-x="0"
     inkscape:window-y="40"
     inkscape:window-maximized="1"
     inkscape:current-layer="g842" /><g
     id="g842"
     inkscape:groupmode="layer"
     inkscape:label="sieker_short"
     transform="matrix(1.3333333,0,0,-1.3333333,-77.581329,688.37703)"><path
       inkscape:connector-curvature="0"
       id="path846"
       style="fill:#1d3782;fill-opacity:1;fill-rule:evenodd;stroke:none;stroke-width:0.95068496"
       d="m 104.02412,463.43248 0.64335,0.80818 0.48251,0.78348 0.34071,0.77778 0.19795,0.75974 0.0676,0.74644 -0.0495,0.7341 -0.16084,0.7284 -0.26552,0.7227 -0.35879,0.71606 -0.43968,0.71605 -0.52534,0.70941 -0.58815,0.7094 -0.64335,0.71036 -0.69854,0.70941 -0.73661,0.72175 -0.76707,0.7227 -0.791814,0.7284 -0.809895,0.74075 -0.810845,0.74644 -0.809895,0.75879 -0.791811,0.77778 -0.77944,0.79013 -0.742324,0.80817 -0.705207,0.82147 -0.662382,0.84521 -0.606231,0.87085 -0.531998,0.88795 -0.463477,0.91359 -0.383534,0.94492 -0.291219,0.96867 -0.185581,0.99336 -0.07994,1.03134 0.03045,1.11682 0.142755,1.04274 0.247441,0.97532 0.35879,0.90789 0.451104,0.84521 0.556743,0.77778 0.655719,0.71605 0.748985,0.66667 0.841301,0.604 0.940276,0.54986 1.020219,0.50617 1.113486,0.4568 1.19438,0.40741 1.274324,0.37037 1.36093,0.32669 1.43516,0.28965 1.5151,0.25926 1.58362,0.22222 1.65786,0.19184 1.72638,0.16619 1.78728,0.14245 1.86247,0.11681 1.91767,0.0988 1.97953,0.0864 2.03473,0.0617 2.09088,0.056 2.14703,0.0494 2.20222,0.037 4.54055,0.0617 4.71376,0.0674 -0.76136,0.86421 -0.78515,0.84521 -0.81085,0.82716 -0.82893,0.80248 -0.85367,0.77778 -0.86604,0.75879 -0.8965,0.74075 -0.90982,0.71035 -0.92791,0.69136 -0.94598,0.66573 -0.96502,0.63628 -0.98406,0.61729 -1.00214,0.58594 -1.02022,0.56791 -1.03354,0.53751 -1.05162,0.51188 -1.064,0.48148 -1.08208,0.4568 -1.0954,0.42545 -1.10683,0.39507 -1.12585,0.37037 -1.13823,0.33998 -1.1449,0.3077 -1.16297,0.27825 -1.17535,0.24692 -1.18105,0.21557 -1.19438,0.18519 -1.2058,0.1548 -1.21913,0.1168 -1.22483,0.0864 -1.23054,0.0494 -1.24387,0.019 -2.257429,-0.056 -2.22126,-0.17284 -2.189855,-0.2773 -2.158449,-0.38272 -2.115623,-0.48814 -2.078506,-0.58594 -2.03568,-0.69137 -1.98524,-0.77778 -1.942413,-0.87655 -1.887215,-0.96202 -1.831065,-1.05604 -1.781577,-1.13581 -1.713055,-1.21558 -1.652146,-1.2963 -1.589334,-1.37608 -1.521763,-1.44446 -1.447531,-1.51758 -1.379961,-1.5869 -1.299066,-1.64768 -1.218173,-1.71607 -1.138229,-1.77114 -1.058287,-1.82717 -0.965021,-1.88225 -0.878416,-1.93734 -0.78515,-1.98197 -0.687126,-2.0304 -0.587197,-2.07314 -0.489172,-2.11777 -0.389244,-2.14722 -0.272185,-2.1852 -0.173209,-2.22223 -0.05615,-2.24598 v -0.44445 l 0.0067,-0.44445 0.01237,-0.43875 0.01808,-0.4378 0.01903,-0.44444 0.02474,-0.4378 0.03045,-0.4321 0.03141,-0.43875 0.03712,-0.43211 0.04283,-0.4321 0.04378,-0.43115 0.04949,-0.4321 0.0552,-0.4321 0.06186,-0.42641 0.06186,-0.42545 0.06186,-0.4264 0.494883,-1.49289 0.637637,-1.37038 0.78515,-1.25927 0.915532,-1.14151 1.039254,-1.03704 1.150601,-0.93163 1.26195,-0.82147 1.355217,-0.72175 1.440869,-0.62394 1.521764,-0.52422 1.590285,-0.4321 1.645485,-0.33903 1.700682,-0.24692 1.73875,-0.16714 1.774915,-0.0798 1.793949,0.006 1.806321,0.0807 1.818693,0.15384 1.806321,0.22888 1.800611,0.30199 1.774915,0.37037 1.74446,0.4378 1.701634,0.49384 1.651195,0.5622 1.595996,0.61729 1.521763,0.67237 1.447531,0.7284 1.360927,0.77113 1.268617,0.82717 1.16297,0.87085 1.05163,0.90694 z" /><path
       inkscape:connector-curvature="0"
       id="path848"
       style="fill:#00973c;fill-opacity:1;fill-rule:evenodd;stroke:none;stroke-width:0.95068496"
       d="m 137.58952,497.98922 -1.03925,-0.0988 -1.08208,-0.0988 -1.12015,-0.11111 -1.16297,-0.11111 -1.19343,-0.13011 -1.21246,-0.12916 -1.24387,-0.14245 -1.25529,-0.15384 -1.26861,-0.16715 -1.26766,-0.17284 -1.27432,-0.18518 -1.27432,-0.19089 -1.26196,-0.20988 -1.24957,-0.22222 -1.2315,-0.23457 -1.2058,-0.24027 -1.18201,-0.26591 -1.14394,-0.2716 -1.10777,-0.28965 -1.064,-0.30295 -1.01451,-0.32099 -0.96502,-0.33333 -0.90316,-0.35138 -0.8413,-0.37038 -0.77278,-0.38271 -0.69949,-0.40741 -0.61861,-0.41976 -0.53771,-0.4378 -0.44539,-0.45679 -0.35879,-0.48149 -0.25981,-0.49383 -0.15513,-0.51852 -0.0923,-0.95062 0.0799,-0.92594 0.23507,-0.90029 0.39019,-0.88319 0.52534,-0.86991 0.64335,-0.85185 0.75469,-0.83952 0.86034,-0.83286 0.94027,-0.82147 1.01451,-0.82052 1.07637,-0.82051 1.12586,-0.81482 2.35069,-1.65434 2.39352,-1.67902 1.18772,-0.8642 1.15726,-0.8756 1.1192,-0.89555 1.07065,-0.91358 1.00785,-0.93828 0.93457,-0.96867 0.84701,-0.99336 0.74232,-1.02469 0.63098,-1.05509 0.51391,-1.09878 0.37117,-1.12916 0.22269,-1.17949 0.0552,-1.21559 -0.11135,-1.26496 -0.30264,-1.3153 -0.50154,-1.36373 -0.76041,-1.48719 -0.94027,-1.37703 -1.12015,-1.27731 -1.28003,-1.17855 -1.42945,-1.08642 -1.57697,-0.98766 -1.70734,-0.8889 -1.82535,-0.80247 -1.93576,-0.71511 -2.04139,-0.62393 -2.12799,-0.54322 -2.20889,-0.45679 -2.28217,-0.38272 -2.33832,-0.2963 -2.38781,-0.22222 -2.42492,-0.1472 -2.45633,-0.0741 -2.480122,-0.007 -2.481074,0.0617 -2.480123,0.1301 -2.468702,0.19658 -2.443006,0.25357 -2.412552,0.31434 -2.369725,0.37702 -2.319286,0.4321 -2.251715,0.48149 -2.177483,0.53656 -2.090878,0.58595 -1.998564,0.63628 -1.892925,0.67902 -1.781577,0.72175 -1.651194,0.76544 0.710917,-1.27731 0.754696,-1.25927 0.791812,-1.22793 0.828928,-1.19754 0.872706,-1.17284 0.908871,-1.13581 0.940276,-1.11112 0.984055,-1.07314 1.014509,-1.04369 1.044963,-1.01235 1.083032,-0.97436 1.119195,-0.93828 1.144892,-0.90124 1.175346,-0.86421 1.2058,-0.82052 1.231496,-0.78443 1.26195,-0.74644 1.292404,-0.70371 1.311439,-0.66002 1.342844,-0.61729 1.360927,-0.57455 1.385671,-0.53087 1.410415,-0.48148 1.428497,-0.4378 1.447531,-0.38842 1.466565,-0.33998 1.490358,-0.28396 1.503681,-0.24026 1.521763,-0.19184 1.539846,-0.12915 1.553171,-0.0864 1.56459,-0.0247 2.25171,0.0551 2.22126,0.17285 2.19557,0.2716 2.15274,0.38937 2.12228,0.48718 2.07185,0.58595 2.03568,0.68566 1.9919,0.78349 1.93575,0.87655 1.88722,0.96296 1.83677,1.05509 1.77587,1.13581 1.71305,1.21559 1.65786,1.2963 1.59028,1.37608 1.51511,1.44445 1.45419,1.51853 1.3733,1.58596 1.29906,1.64768 1.22484,1.71606 1.13823,1.77114 1.05162,1.82718 0.96502,1.88225 0.87842,1.93828 0.78515,1.98102 0.68712,2.03041 0.59386,2.07409 0.48822,2.11682 0.38354,2.14816 0.27885,2.18425 0.16654,2.22224 0.0562,2.24693 -0.007,0.88224 -0.0247,0.88225 -0.0428,0.87655 -0.0619,0.87655 -0.0809,0.8642 -0.0923,0.86421 -0.11135,0.85755 -0.13038,0.85186 -0.14847,0.84616 -0.16083,0.84521 -0.17321,0.83286 -0.19129,0.82717 -0.21033,0.82717 -0.22269,0.81482 -0.24173,0.80817 -0.25316,0.80912 -0.27218,0.79583 -0.28456,0.79013 -0.29693,0.77778 -0.31596,0.77778 -0.32739,0.77114 -0.34641,0.75879 -0.35308,0.75309 -0.37116,0.74739 -0.38354,0.7341 -0.3959,0.7284 -0.41399,0.72175 -0.42065,0.71036 -0.43969,0.70371 -0.4511,0.69041 -0.46443,0.68566 z" /></g></svg>